<svg xmlns="http://www.w3.org/2000/svg" viewBox="0 0 855 295">
    <g fill="none" fill-rule="evenodd">
        <g fill="#B1B1B1" fill-rule="nonzero">
            <path d="M230.4547619 204.05952381v24.15714289h-5.297619v-24.15714289h5.297619ZM206.40357143 220.1642857v7.8404762h-5.29761905v-7.8404762h5.29761905ZM214.35 210.84047619v17.16428571h-5.29761905v-17.16428571zM222.1904762 216.2440476v11.9726191h-5.2976191v-11.9726191zM254.7178571 218.9988095c-.5297619 5.9333334-4.1321428 9.8535715-10.7011904 9.8535715-6.9928572 0-11.6547619-5.0857143-11.6547619-12.6083334 0-6.99285712 4.45-12.60833331 11.7607142-12.60833331 5.827381 0 9.9595239 3.60238095 10.3833334 8.68809523h-5.0857143c-.5297619-2.64880952-2.5428571-4.13214285-5.4035714-4.13214285-4.5559524 0-6.3571429 4.13214285-6.3571429 8.26428573 0 4.9797619 2.4369048 8.1583333 6.3571429 8.1583333 3.1785714 0 5.0857143-1.9071428 5.5095238-5.4035714h5.1916666v-.2119048ZM259.697619 228.0047619v-24.15714285h7.4166667l5.6154762 16.52857145 5.5095238-16.52857145H285.55v24.15714285h-4.9797619v-17.16428571l-5.9333333 17.05833331h-4.0261905l-5.9333333-16.84642855v16.84642855h-4.979762zM303.879762 228.1107143v-12.2904762c0-4.87380953-3.9202382-5.72142858-7.4166668-5.72142858h-.1059523c-5.0857143 0-7.7345239 2.01309524-8.052381 5.93333338h4.45c.3178571-2.0130953 1.1654762-2.6488096 3.3904762-2.6488096 2.1190476 0 3.1785714.7416667 3.1785714 2.3309524 0 1.377381-1.0595238 1.6952381-4.1321428 2.1190476l-.7416667.1059524c-3.2845238.4238095-6.8869048 1.1654762-6.8869048 5.5095238 0 3.2845238 2.3309524 5.2976191 6.2511905 5.2976191 2.1190476 0 4.1321429-.6357143 5.6154762-2.225v1.6952381h4.4500001v-.1059524Zm-4.6619049-8.4761905v2.0130952c0 2.5428572-1.8011904 3.8142858-4.2380952 3.8142858-1.6952381 0-2.6488095-.8476191-2.6488095-2.3309524 0-2.1190476 1.9071428-2.3309524 3.4964286-2.6488095 1.2714285-.2119048 2.3309523-.2119048 3.3904761-.8476191ZM310.236905 228.1107143V217.197619c0-1.0595238.847619-2.1190476 2.119047-2.1190476H316.7v-4.66190473h-4.45c-3.708333 0-6.675 3.07261903-6.675 6.78095233v10.8071429c0 .1059524 4.661905.1059524 4.661905.1059524ZM356.644048 203.95357143v6.46309524h5.297619v4.66190473h-5.297619v6.1452381c0 1.0595238.847619 2.1190476 2.119047 2.1190476h3.284524v4.6619048h-3.284524c-3.708333 0-6.675-3.072619-6.675-6.7809524v-17.27023807h4.555953ZM334.182143 210.52261905l-6.569048 6.46309525 7.310715 10.9130952h-5.721429l-4.87381-7.7345238-2.013095 1.9071429v5.9333333h-4.661905v-24.15714285h4.661905v12.92619045l6.145238-6.25119045z"/>
            <path d="M350.286905 222.6011905h-4.555953c-.635714 1.8011905-1.80119 2.5428571-3.496428 2.5428571-2.542857 0-4.026191-1.6952381-4.026191-4.5559524h12.502381v-.4238095c0-6.1452381-3.284524-9.9595238-8.582143-9.9595238-5.085714 0-8.794047 3.9202381-8.794047 9.3238095 0 5.5095238 3.496428 9.1119048 8.9 9.1119048 3.920238-.1059524 6.992857-2.3309524 8.052381-6.0392857Zm-4.555953-5.1916667h-7.522619c.211905-2.4369048 1.801191-3.9202381 3.814286-3.9202381 2.436905 0 3.602381 1.9071429 3.708333 3.9202381ZM378.364286 215.6083333h-4.45c-.211905-1.9071428-1.377381-2.4369047-3.284524-2.4369047-1.695238 0-2.754762.6357143-2.754762 1.8011904 0 1.1654762 1.059524 1.4833334 3.178571 2.0130953l1.695239.3178571c2.966666.6357143 6.25119 1.4833334 6.25119 5.2976191 0 3.6023809-2.966667 5.9333333-7.840476 5.9333333-4.344048 0-8.158334-1.8011905-8.158334-6.1452381h4.45c.211905 2.1190476 1.483334 2.9666667 3.708334 2.9666667 2.013095 0 3.178571-.8476191 3.178571-2.225 0-1.377381-1.271428-1.8011905-3.708333-2.3309524l-.42381-.1059524c-3.072619-.6357143-6.886904-1.1654762-6.886904-5.297619 0-3.39047622 2.754762-5.40357146 7.522619-5.40357146 4.02619.10595238 7.416666 1.58928572 7.522619 5.61547616Z"/>
        </g>
        <g fill-rule="nonzero">
            <path fill="#B1B1B1" d="M129.7668326 90.782824h3.5444678v1.8400987c.5700644-.700266 1.3007339-1.2525622 2.1299185-1.6100987.9185193-.3946523 1.9100858-.5906952 2.9096481-.575 1.4184978-.022309 2.8150815.3521073 4.032206 1.081 1.1843519.7117168 2.1583476 1.7253949 2.8221888 2.9372876.6811159 1.2815837 1.0372704 2.7107425 1.0372704 4.1621116 0 1.4513691-.3561545 2.8805279-1.0372704 4.1621116-.6647296 1.2112017-1.6385279 2.2246824-2.8221888 2.9372875-1.2266009.7302747-2.6323648 1.104691-4.0597468 1.0810987-.9149657.0081932-1.8236138-.1532017-2.6796481-.4761888-.7942403-.2989013-1.5122747-.7702532-2.1023777-1.3800987v7.2730343h-3.7744678V90.782824Zm10.4126824 11.960691c.6679871-.4076824 1.2113992-.9908755 1.5710086-1.6860086.3912961-.7506094.5889185-1.5870987.575-2.4335579.0148069-.8421159-.1830129-1.6742618-.575-2.4197382-.3661245-.6899013-.9080558-1.2707253-1.5710086-1.6836395-.5017553-.3130172-1.0628369-.51903-1.6480043-.6050086-.5850686-.0858798-1.1816867-.0500472-1.7522446.1055236-.5706567.1554721-1.1029142.4272275-1.5635064.7981889-.460691.3708626-.8396481.8330343-1.1131803 1.3573948-.369382.7633434-.561279 1.6004249-.561279 2.4484635 0 .8480387.191897 1.6851202.561279 2.4484636.3559571.695133.8995665 1.276648 1.569133 1.6787038.6695666.4020558 1.4382404.6085623 2.2191546.5961245.805.0132275 1.5976609-.1987082 2.288648-.6118197v.0069098Zm11.178691 2.9671974c-1.1936309-.7132961-2.1696008-1.7393133-2.8222875-2.9671974-.6771674-1.2739828-1.0235494-2.6976137-1.0074593-4.1401974-.0284292-1.4621288.3243691-2.9064893 1.0235494-4.1909356.657721-1.1962962 1.6213519-2.1964507 2.7923777-2.8980987 1.1968884-.7132962 2.5676094-1.0818885 3.9608369-1.0650086 1.6330987 0 3.0131974.3504292 4.1401974 1.0511888 1.105382.6675923 2.0048498 1.6275708 2.5991974 2.7739185.6005665 1.184648.9051932 2.4971287.8878198 3.825206 0 .2882403-.0137211.5711502-.0413605.8487296-.0237897.2507296-.0770945.4978069-.1587297.736h-11.2867811c.0730472.8893991.4274249 1.7323047 1.0117039 2.4067082.5843777.6744034 1.3682532 1.145163 2.2381073 1.3439699.8699528.1989056 1.7804764.1155923 2.5998884-.2377983.8193133-.3534892 1.5047725-.9586953 1.9569742-1.7279613l3.0522876 1.4973691c-.5253476 1.1677682-1.4124764 2.1354463-2.5300987 2.7601974-1.2905665.7115193-2.7407511 1.0835665-4.2145279 1.0812086-1.4737768-.002479-2.9226781-.3792644-4.2108755-1.0950284l.0091802-.0022704Zm1.5134592-11.3051416c-.7128025.6186309-1.1865236 1.4674592-1.3386394 2.3990086h7.3603948c-.0469871-.8972961-.4452918-1.740103-1.1086395-2.3461974-.682103-.6128069-1.5745622-.9383605-2.4911073-.9085494-.8829828-.0168798-1.7426695.2843906-2.4220086.8488283v.0069099Zm11.6708713-3.6227468h3.5421974v1.8400987c.5704592-.7008583 1.3019185-1.2532532 2.1320901-1.6100987.919013-.3946523 1.910086-.5906952 2.910043-.575 1.418498-.0220128 2.814292.3524035 4.032403 1.081 1.183563.7117168 2.157854 1.7253949 2.822189 2.9372876.681116 1.2815837 1.036481 2.7107425 1.036481 4.1621116 0 1.4513691-.355365 2.8805279-1.036481 4.1621116-.665322 1.2112017-1.638626 2.2246824-2.822189 2.9372875-1.227982.7302747-2.634635 1.1045923-4.062017 1.0810987-.915064.0079957-1.822232-.1533991-2.678068-.4761888-.7936485-.2989013-1.5122751-.7702532-2.102082-1.3800987v7.2730343h-3.7745665V90.782824Zm10.4124845 11.960691c.667297-.4077811 1.210215-.9909742 1.568541-1.6860086.392876-.750412.591288-1.5869012.577468-2.4335579.014807-.8423133-.184592-1.6744592-.577468-2.4197382-.365236-.6897039-.90618-1.2706266-1.568541-1.6836395-.501459-.3130172-1.062145-.51903-1.64751-.6050086-.585365-.0858798-1.181588-.0500472-1.752146.1055236-.570558.1554721-1.103605.4272275-1.5636053.7981889-.4609872.3708626-.840043.8330343-1.1134764 1.3573948-.369382.7633434-.5611803 1.6004249-.5611803 2.4484635 0 .8480387.1917983 1.6851202.5611803 2.4484636.3563519.6947382.8992703 1.2760558 1.5685407 1.6781116.668283.4020557 1.437253.6087596 2.217082.5967167.803519.0122403 1.595193-.1995966 2.284206-.6118197l.006909.0069098Zm7.880215-11.960691h3.54279v1.8400987c.570558-.7008583 1.302017-1.2532532 2.132189-1.6100987.918025-.3946523 1.910085-.5906952 2.909055-.575 1.418498-.0220128 2.815279.3524035 4.032404 1.081 1.183562.7126052 2.157854 1.7260859 2.822189 2.9372876.681116 1.2815837 1.037467 2.7107425 1.037467 4.1621116 0 1.4513691-.356351 2.8805279-1.037467 4.1621116-.665322 1.2109055-1.638627 2.2242875-2.822189 2.9372875-1.226996.7302747-2.633648 1.1045923-4.062017 1.0810987-.914078.0079957-1.822232-.1533991-2.677082-.4761888-.794635-.2989013-1.512275-.7702532-2.102575-1.3800987v7.2730343h-3.781674l.00691-21.4326438Zm10.413176 11.960691c.667296-.4077811 1.210215-.9909742 1.568541-1.6860086.391888-.750412.5903-1.5869012.577468-2.4335579.013819-.8423133-.184593-1.6744592-.577468-2.4197382-.365236-.6897039-.90618-1.2706266-1.568541-1.6836395-.501459-.3130172-1.063133-.51903-1.648498-.6050086-.584378-.0858798-1.181588-.0500472-1.752146.1055236-.570558.1554721-1.102618.4272275-1.563605.7981889-.46.3708626-.839056.8330343-1.112489 1.3573948-.370172.7633434-.561674 1.6004249-.561674 2.4484635 0 .8480387.191502 1.6851202.561674 2.4484636.355365.6947382.898283 1.2760558 1.567553 1.6781116.669271.4020557 1.437254.6087596 2.218069.5967167.803519.0122403 1.594206-.1995966 2.284206-.6118197l.00691.0069098Zm11.194979 2.9671974c-1.194421-.7131974-2.171674-1.7392145-2.825151-2.9671974-.677167-1.2739828-1.023648-2.6976137-1.006867-4.1401974-.028626-1.4621288.323777-2.9064893 1.023648-4.1909356.655451-1.1954078 1.61691-2.1954635 2.784679-2.8980987 1.197382-.7132962 2.56751-1.0818885 3.96133-1.0650086 1.632704 0 3.012704.3504292 4.14 1.0511888 1.105579.667 2.005837 1.6270773 2.599099 2.7739185.60412 1.1861287.911116 2.5010772.895322 3.8320171 0 .2875494-.016781.5704593-.044421.8488284-.023691.2507296-.076996.4978068-.15794.736h-11.291717c.073048.8893004.427425 1.7323047 1.011803 2.4067081.584378.6744035 1.368154 1.1451631 2.237811 1.34397.869657.1989056 1.780773.1155923 2.600086-.237897.819313-.3533906 1.504378-.9585966 1.956481-1.7278627l3.052188 1.4973691c-.52515 1.1677683-1.411587 2.1354464-2.53 2.7601974-1.290171.7116181-2.73927 1.0836653-4.213047 1.0812097-1.473777-.0023813-2.921888-.3791667-4.210086-1.0950294l.016782-.0091803Zm1.511287-11.3051416c-.713691.6206052-1.186523 1.4708155-1.339528 2.4036481h7.360987c-.047382-.8973949-.445193-1.740103-1.10854-2.3461974-.682103-.6129056-1.574464-.9384593-2.491503-.9085494-.88545-.0204335-1.748197.2793562-2.431287.8441888l.009871.0069099Zm11.650043-3.6158369h3.541803v2.217279c.319828-.8103305.923948-1.4761459 1.699828-1.872279.794635-.3584249 1.659356-.5352189 2.53-.5175494h.92v3.3351975h-1.354335c-.474807-.0186567-.948626.0598197-1.391845.230691-.443219.1708712-.846953.4304849-1.186524.7629485-.66236.6624592-.994034 1.5886781-.994034 2.7785579v8.7267725h-3.771803l.00691-15.661618Zm11.29764 14.8059785c-1.193434-.7496223-2.092704-1.8863948-2.547769-3.2201974l2.822189-1.3524592c.377082.8261245.962446 1.539618 1.699828 2.0700987.69691.4955365 1.533992.7580129 2.389829.7498197.575493.0270473 1.146051-.1291158 1.627768-.4461802.197425-.1360258.357339-.3192361.465923-.5330472.107596-.2138112.160901-.4512146.153004-.690691.005923-.2059142-.039485-.4100515-.132275-.5939528-.092789-.1839013-.23-.3418412-.398798-.4595064-.38794-.2730387-.823262-.4726352-1.283262-.5888198l-2.569485-.736c-1.324721-.3833991-2.328626-.9691588-3.010729-1.7573777-.675193-.7728197-1.039442-1.7687296-1.021674-2.794648-.021717-.8987769.234935-1.7822532.73442-2.5300987.513305-.728794 1.217125-1.3024121 2.035451-1.6584679 1.111502-.4685879 2.316781-.6695665 3.520086-.5868454 1.203305.0826223 2.371073.4467725 3.407554 1.0630343 1.116437.7005622 1.967339 1.7525408 2.419442 2.9901974l-2.881417 1.3524592c-.241845-.7015493-.713691-1.3006352-1.33854-1.6998283-.636696-.419133-1.383949-.6392618-2.146009-.6325493-.534034-.030897-1.063133.1217124-1.497468.4324592-.174721.1298069-.314893.2994936-.410644.4947468-.094764.1952532-.142146.410545-.13721.6277124-.007897.2023605.036524.4034378.126352.5846738.090815.1812361.225064.3369056.390901.4526953.404721.2752103.852876.4797425 1.324721.6049099l2.507296.7475493c1.306953.3665194 2.303949.9430988 2.990988 1.7297382.688025.7767683 1.058197 1.7845236 1.03648 2.8222876.015794.8881159-.245794 1.7590558-.749227 2.4910086-.524163.7401459-1.239828 1.3231416-2.07 1.6860086-.982189.4226867-2.043348.6289957-3.112404.6049098-1.539914.0273434-3.054163-.4006738-4.352231-1.2305493l.00691.0069098Zm15.28266-.4324592c-.969356-.9798197-1.454034-2.3430386-1.454034-4.0896566V93.952382h-2.706695v-3.169558h.287253c.767983 0 1.364206-.2000901 1.786695-.6049098.423477-.4048198.632747-.9890987.632747-1.7573777v-2.32081847h3.774764V90.782824h3.602017v3.169558h-3.600043v6.9003948c0 .7866395.209271 1.3916481.632747 1.8148284.423476.4232789 1.094721.6325493 2.017683.6325493.336609-.0022704.674206-.0306996 1.006866-.0850901v3.2201974c-.268497.0390901-.577467.0781803-.92.115-.314892.0376094-.632746.0576481-.949613.059995-1.77485.0105844-3.146953-.473995-4.117296-1.4539135l.006909.0069099Zm10.642189.5750987c-1.260558-.710927-2.308884-1.743854-3.039356-2.9931588-.730472-1.249206-1.116438-2.6700729-1.117432-4.1171974-.001967-1.4471245.381037-2.8686824 1.109535-4.1193691.727511-1.2506867 1.77485-2.285588 3.033434-2.9989828 1.286223-.6989829 2.727424-1.0651073 4.19133-1.0651073 1.463906 0 2.90412.3661244 4.190343 1.0651073 1.233906.6918755 2.265451 1.6950901 2.990988 2.909648.728497 1.2848412 1.110515 2.7372962 1.108548 4.2145279-.002969 1.4773305-.388935 2.9285022-1.122368 4.2108756-.725537 1.2146566-1.757082 2.2178712-2.990987 2.9097468-1.281288.6924678-2.71558 1.0536566-4.171588 1.0509084-1.456996-.0028784-2.889314-.3695951-4.168627-1.0669986h-.01382Zm6.424206-2.9901974c.653477-.4124206 1.181588-.9954163 1.528069-1.6860086.38103-.7537682.573519-1.5888755.560687-2.4335579.013819-.8403391-.17867-1.6712017-.560687-2.4197382-.353391-.6854592-.879528-1.2660859-1.528069-1.6837382-.667296-.4199228-1.442189-.6350172-2.230901-.6187296-.797597-.0138198-1.583348.2008798-2.263476.6187296-.660387.4111373-1.197382.9927511-1.554721 1.6837382-.383005.7481416-.575494 1.5793004-.560687 2.4197382-.014807.8447811.178669 1.6801845.560687 2.4335579.350429.6961202.889399 1.2802017 1.554721 1.6860086.684077.4082747 1.467854.6177425 2.263476.6049099.784764.0106609 1.556695-.2032489 2.223991-.6164592l.00691.0115493Zm7.839743-11.9607897h3.543777v1.9298283c.410643-.7380729 1.038455-1.3316309 1.79854-1.6997296.822275-.3937639 1.725494-.5906953 2.63661-.5750987 1.070043-.0200386 2.127253.2383906 3.067983.7498197.87854.4854679 1.602103 1.2084378 2.088755 2.0862876.513305.9506996.769957 2.0182747.747253 3.0982876v10.0792317h-3.771802v-9.191412c0-1.0365794-.293176-1.8577682-.878541-2.4634678-.299099-.3033434-.658412-.5407468-1.054249-.6968112-.395837-.1560643-.8203-.2274334-1.245751-.2093691-.427425-.0183605-.852876.0542919-1.2497.2129228-.395837.1585322-.754163.399588-1.051287.7070772-.586352.6164593-.878541 1.4307382-.878541 2.4496481v9.1867725h-3.759957l.00691-15.6639871Zm19.336781 14.9210773c-1.194421-.7125065-2.171674-1.7387211-2.824163-2.9671975-.677168-1.2739828-1.023648-2.6976137-1.007854-4.1402961-.028627-1.4621288.324764-2.9063906 1.023648-4.1908369.656438-1.1945193 1.61691-2.1937854 2.785665-2.8958283 1.196395-.7132962 2.567511-1.0818885 3.960343-1.0650086 1.633691 0 3.013691.3504292 4.14 1.0511888 1.103606.6682833 2.001889 1.6281631 2.595151 2.7739185.60412 1.1861287.911115 2.5010772.894334 3.8320171 0 .2875494-.015794.5704593-.043433.8488284-.023691.2507296-.076996.4978068-.158927.736h-11.29073c.073047.8893004.427425 1.7323047 1.010816 2.4067081.584377.6744035 1.369141 1.1451631 2.238798 1.34397.869657.1989056 1.779785.1155923 2.600086-.237897.819313-.3533906 1.504378-.9585966 1.956481-1.7278627l3.052188 1.4973691c-.52515 1.1677683-1.412575 2.1354464-2.53 2.7601974-1.290171.7116181-2.740257 1.0836653-4.213047 1.0812097-1.473777-.0023813-2.921888-.3791667-4.210086-1.0950294l.02073-.0114506Zm1.511287-11.3052404c-.712703.6206052-1.186523 1.4709142-1.33854 2.4036481h7.36c-.046395-.8972962-.445193-1.740103-1.108541-2.3460987-.682103-.6129056-1.574464-.9384593-2.490515-.9085494-.885451-.0192489-1.748198.2813305-2.429313.8464592l.006909.0045408ZM113.4810558 86.43872618c-8.1155451-4.6644691-25.0133391-8.33008275-33.95937168-8.56768953-8.9483267-.23760678-9.94719794 2.95047751-9.40047116 10.20785605.5490337 7.2597082 2.64135356 18.5863691 7.25969434 25.8207082 4.6160112 7.234339 11.7557837 10.3762575 19.3245605 7.7833776 7.5665064-2.5952489 15.564485-10.9252961 19.8944077-17.9220343 4.3300215-6.9920987 4.9967254-12.6576996-3.1188197-17.32221802Z"/>
            <path fill="#FFF" d="M97.5936824 106.3722833h-5.6910687v9.4651416h-5.7948154V94.780382h5.7948154v5.7948154h5.6910687v-.0161888c2.3875579-.0414592 4.3114635-1.9861931 4.3114635-4.3830301 0-2.3968369-1.9239056-4.3438412-4.3114635-4.38303v-.0046395H78.86191974l2.11766826-5.79480557h16.6117253c5.6379614 0 10.210224 4.57225197 10.210224 10.21021327.0022696 5.6402318-4.5698935 10.1685666-10.2078549 10.1685666Z"/>
        </g>
        <g fill="#B1B1B1" fill-rule="nonzero">
            <path d="m749.215401 88.14568158-4.973986 8.61602498-4.973985-8.61602498h-6.805411l8.761706 13.42351722v9.8855359h5.619147v-9.8855359l8.969823-13.42351722zM709.028096 98.1144641h-2.663892v-5.43184183h2.996878c1.685744 0 3.746098.41623309 3.746098 2.60145681 0 2.37252862-2.26847 2.83038502-4.079084 2.83038502m9.635796-2.93444329c0-5.32778356-4.453694-7.03433923-8.9282-7.03433923h-8.886576v23.30905312h5.5359v-9.2611863h1.914672l5.03642 9.2611863h6.597295l-6.097815-9.9687826c2.996878-.9365244 4.849115-3.1633715 4.828304-6.30593129M670.734651 106.4391259c-3.704474 0-6.264308-2.8511967-6.264308-6.8262227 0-3.85015606 2.539022-6.70135273 6.264308-6.70135273 3.725287 0 6.305932 2.85119667 6.305932 6.70135273 0 3.9542144-2.622269 6.8262227-6.305932 6.8262227m0-18.31425597c-6.867846 0-11.966701 4.43288241-11.966701 11.48803327 0 6.9510926 5.098855 11.6753382 11.966701 11.6753382 6.888658 0 11.987513-4.7242456 11.987513-11.6753382 0-7.05515086-5.098855-11.48803327-11.987513-11.48803327M635.2091571 88.14568158h5.32778356v23.3090531h-5.32778356zM600.4120708 88.14568158h-7.7211239l6.6805411 9.01144641 3.8917794-5.18210198zM610.5265349 88.14568158 593.1904266 111.433923h7.7835588l17.2736733-23.28824142zM610.880333 111.4547347h7.8251821l-6.6805411-9.0530698-3.9125911 5.3277836zM565.57336108 102.3600416l2.97606662-8.01248697 2.8720083 8.01248697h-5.84807492Zm.33298647-14.21436002-9.78147762 23.30905312h6.11862643l1.70655567-4.578564h9.01144637l1.810614 4.578564h6.264308l-9.6774194-23.30905312h-5.45265345Z"/>
        </g>
        <g fill="#B1B1B1" fill-rule="nonzero">
            <path d="M403.0101562 77.28984375h-23.34348953v1.1c2.68984375.12317708 3.54348958.48984375 3.54348958 3.3v18.94348955c0 2.9333334-.859375 3.1768229-3.54348958 3.3v.9768229h13.07682293v-.9768229c-3.3-.1231771-4.03333335-.4898437-4.03333335-3.3v-9.0434896h4.76380205c3.5434896 0 5.2565105.859375 5.8666667 4.0333334h1.1v-9.77968752h-1.1c-.4898438 2.93333332-1.4666667 3.66666662-5.8666667 3.66666662h-4.76380205v-8.79999995c0-1.1.24348958-1.34348958 1.58984375-1.34348958h4.1565104c5.5 0 6.4768229.97682291 7.4479167 4.03333333h1.1l.0057291-6.11015625ZM420.7333333 102.1l-5.3768229-7.9434896 2.9333333-3.6666666c1.9565105-2.3231771 3.0565105-3.54348963 4.7666667-3.66666672v-1.1h-7.5796875v1.1c1.3434896 0 1.9565104.36666662 1.9565104 1.22317712 0 .7333333-.859375 1.71875-1.5898437 2.4434896l-1.71875 1.9565104-1.9565104-2.9333334c-.4898438-.6101562-.859375-1.1-.859375-1.71875 0-.61875.7333333-.97682288 1.9565104-.97682288v-1.1h-10.1320313v1.1c1.4666667.36666668 2.0768229 1.22317708 2.8101563 2.32317708l5.0044271 7.3361979-4.1565105 4.8898438c-1.4666666 1.71875-2.2 2.3231771-3.9101562 2.578125v.9768229h7.4479167v-.9768229c-.976823 0-2.076823-.2434896-2.076823-.859375s.7333334-1.4666667 1.9565105-2.9333334l1.71875-2.0768229 2.0768229 3.0565104c.7333333 1.1 1.1 1.5898438 1.1 1.9565105 0 .4898437-.7333334.7333333-2.0768229.7333333v.9768229h10.3898437v-.9768229c-.8507812.2348958-1.5841146-.0114583-2.6841146-1.7216146ZM438.2101563 77.28984375h-13.076823v1.1c2.8101563.12317708 3.5434896.48984375 3.5434896 3.3v18.94348955c0 2.9333334-.7333333 3.1768229-3.5434896 3.3v.9768229h12.8333334v-.9768229c-2.9333334-.1231771-3.6666667-.4898437-3.6666667-3.3v-7.2101562h3.6666667c7.0898437 0 10.8854166-2.8101563 10.8854166-8.06666668-.1289062-4.52317709-3.0622395-8.06666667-10.641927-8.06666667Zm-4.0333334 14.54348955V80.46666667c0-.97682292.3666667-1.58984375 2.3231771-1.58984375 3.6666667 0 6.4768229 2.07682291 6.4768229 5.86666666 0 4.40000002-2.3203125 7.08984372-8.8 7.08984372ZM461.8 85.35651042c-2.3231771 0-3.7898438 1.83333328-4.5231771 3.54348958h-.1231771v-2.93333333c0-.36666667 0-.61015625-.2434896-.61015625-.3666666 0-4.8898437 1.22317708-6.9666666 1.58984375v1.10000003c1.8333333 0 2.3231771.3666666 2.3231771 2.4434895v11.1231771c0 1.71875-.7333334 2.076823-2.3231771 2.3231771v.9768229h10.1434896v-.9768229c-1.8333334 0-2.9333334-.4898437-2.9333334-2.578125V90.6101562c.6101563-.9768229 1.3434896-1.5898437 2.0768229-1.5898437.3917885.0271614.7702724.1533227 1.1.3666667.3666667.2434895.859375.859375 1.9565105.859375.5841769.0022954 1.1450902-.2287525 1.5581689-.6418311.4130786-.4130787.6441265-.973992.6418311-1.5581689.1231771-1.22317712-.7304688-2.68984378-2.6869792-2.68984378ZM473.5333333 85.35651042c-5.5 0-9.2898437 4.27682288-9.2898437 10.14348958 0 5.8666667 3.7898437 10.1434896 9.2898437 10.1434896 5.4999997 0 9.2898437-4.2768229 9.2898437-10.1434896 0-5.8666667-3.789844-10.14348958-9.2898437-10.14348958Zm0 18.57682288C470.6 103.9333333 469.5 101.3552083 469.5 95.5c0-5.8552083 1.2231771-8.4333333 4.0333333-8.4333333 2.9333334 0 4.0333334 2.578125 4.0333334 8.4333333.1260416 5.8666667-1.1 8.4333333-4.0333334 8.4333333ZM379.74973958 114.4635417h7.29322917v1.1744791h-3.02213542v8.1640625h-1.271875V115.64375h-2.99921875zM390.0164063 117.1161458c.460542-.2715454.986485-.412193 1.5210937-.4067708v1.1916667c-.6255884-.0663379-1.2506361.1300569-1.7258577.5422777-.4752216.4122208-.7579478 1.0032551-.7806527 1.631941v3.7239584h-1.2403646v-7.0440105h1.2403646v1.5210938c.2028263-.4779447.5465898-.8826663.9854167-1.1601563ZM396.8828125 123.8020833v-.9882812c-.5251736.6932291-1.347309 1.0398437-2.4664062 1.0398437-.4453325.0073657-.8860831-.090797-1.286198-.2864583-.3546087-.1702049-.6528863-.4386548-.859375-.7734375-.1968155-.3346164-.2960447-.7176408-.2864583-1.1057292-.0228759-.58382.2374094-1.1427934.6989583-1.5010416.5698812-.4018851 1.2569765-.6033793 1.9536459-.5729167h2.2401041v-.3322917c.0236277-.4314111-.145291-.8510848-.4611979-1.1458333-.3817242-.2956901-.8589518-.4404899-1.340625-.4067708-.7853862.0243633-1.5443422.289348-2.1742187.7591145l-.5184896-.859375c.4378574-.2944626.9102324-.5340174 1.4065104-.7132812.4982822-.1569316 1.0188484-.2314364 1.5411458-.2205729.880382 0 1.5602431.2157986 2.0395834.6473958.4954014.4661955.7631367 1.1250755.7333333 1.8046875v4.640625l-1.2203125.0143229Zm-.7390625-1.3921875c.3874544-.2535853.6512571-.657598.7276042-1.1143229v-.7075521h-2.0653646c-.4304152-.0286407-.8606552.0583963-1.2460938.2520834-.2748614.1689316-.4319503.4775781-.4067708.7992187-.0106007.3365297.1432974.6571509.4125.859375.3220466.2281697.7115706.3411922 1.1057292.3208333.5212958.0185421 1.0355761-.1245359 1.4723958-.4096354ZM406.8973958 113.9106771v9.8914062h-1.2403646v-1.4007812c-.2504926.4544863-.6224156.8303766-1.0742187 1.0856771-.4799879.2618812-1.020283.3932509-1.5669271.3809895-.6203982.012125-1.2320736-.1474856-1.7674479-.4611979-.5111618-.3053871-.9253342-.7493561-1.1945312-1.2804687-.2919807-.5806669-.4384589-1.2235981-.426823-1.8734375-.0124346-.6416769.1342028-1.2764494.426823-1.8476563.2722634-.523729.6861594-.9604538 1.1945312-1.2604166.5323441-.3074832 1.1384649-.4639653 1.753125-.4526042.5520199-.0125164 1.0981468.1156361 1.5869792.3723958.4521713.2493557.8223283.6244879 1.065625 1.0799479v-4.2395833l1.2432291.0057292Zm-2.3947916 8.5736979c.3644575-.2116181.6622065-.521277.859375-.89375.4089768-.8187846.4089768-1.7822571 0-2.6010417-.1969165-.3726552-.4947255-.6823765-.859375-.89375-.3745254-.2176828-.8015141-.3286404-1.2346354-.3208333-.433843-.0075576-.861264.1054958-1.2346355.3265625-.3639151.2148524-.6613327.5261495-.859375.8994792-.4058458.8114591-.4058458 1.7666658 0 2.578125.1969165.3726552.4947255.6823765.859375.89375.7668674.426323 1.6995389.426323 2.4664063 0l.0028646.0114583ZM414.6976563 117.6776042c.5595486.6454861.8393229 1.5411458.8393229 2.6869791v.4010417h-5.5859375c.0712134.5824303.3535308 1.1185277.7934896 1.5067708.4411177.3825042 1.0090115.5867825 1.5927083.5729167.3998351.0031121.7962491-.0738331 1.1658854-.2263021.3536323-.1476558.6733659-.3660104.9395833-.6416666l.6817709.707552c-.3509247.3727908-.7778267.6658585-1.2518229.859375-.5165597.2094295-1.0697291.3136357-1.6270834.3065105-.644074.0124761-1.2804716-.1414433-1.8476562-.446875-.5301108-.2906025-.964854-.7283302-1.251823-1.2604167-.5960942-1.1616748-.5960942-2.5393669 0-3.7010417.2898961-.5294501.7213386-.9678354 1.2460938-1.2661458.5576706-.3124143 1.1885046-.4706172 1.8276042-.4583333 1.0904514-.0057292 1.9164062.3141493 2.4778646.9596354Zm-.2864584 2.1255208c.0078201-.5721729-.2244095-1.1214567-.6403048-1.5144886-.4158952-.3930319-.9774191-.5938659-1.5482368-.5537406-.571837-.0150877-1.1276314.1900025-1.5526042.5729167-.4232748.3942748-.6863957.930715-.7390625 1.5067708l4.4802083-.0114583ZM420.8450521 114.4635417h1.2747396v8.1726562h4.0791666v1.1601563h-5.3539062zM428.8773437 114.1627604c.2917796.3262195.2917796.8196138 0 1.1458333-.3066624.302126-.7990667.302126-1.1057291 0-.2917796-.3262195-.2917796-.8196138 0-1.1458333.3066624-.3021259.7990667-.3021259 1.1057291 0Zm-1.1658854 2.578125h1.2403646v7.0611979h-1.2403646v-7.0611979ZM436.2966146 123.8020833l-2.2544271-3.4375-1.3721354 1.4322917v2.0052083h-1.2403646v-9.8914062h1.2403646v6.3020833l3.4145833-3.4575521h1.4523438l-2.6296875 2.7328125 2.8817708 4.3197917zM444.1111979 117.6776042c.5595486.6454861.8393229 1.5411458.8393229 2.6869791v.4010417h-5.5859375c.0714715.5823495.3537435 1.1183606.7934896 1.5067708.4411177.3825042 1.0090115.5867825 1.5927084.5729167.399835.0031121.7962491-.0738331 1.1658854-.2263021.3535937-.1477269.6733137-.3660723.9395833-.6416666l.6789063.707552c-.3506905.373064-.777656.6661753-1.251823.859375-.516516.209578-1.0697156.3137899-1.6270833.3065105-.6440882.0126059-1.2805183-.1413214-1.8476562-.446875-.5303096-.2903383-.9651196-.7281332-1.251823-1.2604167-.5951488-1.161903-.5951488-2.5391387 0-3.7010417.2900181-.5293594.7214312-.9677148 1.2460938-1.2661458.5576706-.3124143 1.1885046-.4706172 1.8276041-.4583333 1.0942709-.0057292 1.9211806.3141493 2.4807292.9596354Zm-.2864583 2.1255208c.007757-.5716389-.2240861-1.1204341-.6393359-1.5133702-.4152497-.3929362-.9760012-.5941453-1.5463412-.554859-.5718856-.0153827-1.127786.1897466-1.5526042.5729167-.4237154.3939476-.686924.9305668-.7390625 1.5067708l4.4773438-.0114583ZM454.4466146 123.8020833v-.9882812c-.5232639.6932292-1.3453993 1.0398437-2.4664063 1.0398437-.4453324.0073657-.886083-.090797-1.2861979-.2864583-.3545183-.1703398-.6527617-.4387588-.859375-.7734375-.1962489-.3348507-.2954355-.717711-.2864583-1.1057292-.0228759-.58382.2374094-1.1427934.6989583-1.5010416.5698812-.4018851 1.2569764-.6033793 1.9536458-.5729167h2.2401042v-.3322917c.0236277-.4314111-.145291-.8510848-.4611979-1.1458333-.3815987-.2959331-.8589212-.4407617-1.340625-.4067708-.7854203.0241795-1.54443.2891828-2.1742188.7591145l-.5213541-.859375c.4378133-.2945377.9101979-.5340973 1.4065104-.7132812.4982593-.1570321 1.0188421-.2315393 1.5411458-.2205729.880382 0 1.5602431.2157986 2.0395834.6473958.4947579.4666363.7623681 1.1252084.7333333 1.8046875v4.640625l-1.2174479.0143229Zm-.7390625-1.3921875c.3874544-.2535853.651257-.657598.7276042-1.1143229v-.7075521h-2.0682292c-.4304246-.0287811-.8607012.0582633-1.2460938.2520834-.2748614.1689316-.4319503.4775781-.4067708.7992187-.0106007.3365297.1432974.6571509.4125.859375.3230269.2283825.7135214.3413938 1.1085937.3208334.5203282.0179473 1.0335193-.1251059 1.4695313-.4096355h.0028646ZM467.8013021 115.2971354c.6527995.5891726 1.0035529 1.4423565.9539062 2.3203125 0 1.0407986-.3198784 1.8476563-.9596354 2.4205729-.6397569.5729167-1.5373264.859375-2.6927083.859375h-2.3203125v2.9046875h-1.2804688v-9.3385416h3.5864584c1.1725694 0 2.0768229.2778646 2.7127604.8335937Zm-.9138021 3.9130209c.4443362-.3891305.6816384-.963317.6416667-1.5526042.0384869-.5774666-.1996839-1.1388691-.6416667-1.5125-.4258681-.3418403-1.0388889-.5127604-1.8390625-.5127604h-2.2658854v4.0934896h2.2658854c.790625.0076388 1.4036458-.1642362 1.8390625-.5156251v1e-7ZM472.5536458 117.1161458c.4605986-.2714104.9865034-.4120478 1.5210938-.4067708v1.1916667c-.6257708-.0672156-1.2513056.1288662-1.7267346.5412669-.4754289.4124006-.7579141 1.0039613-.7797758 1.6329518v3.7239583h-1.2403646v-7.0440104h1.2403646v1.5210938c.2028263-.4779447.5465898-.8826663.9854166-1.1601563ZM480.227865 117.1619792c.536372.2920218.980018.7287204 1.280468 1.2604166.614684 1.1571137.614684 2.5439281 0 3.7010417-.298295.5355307-.742278.9755404-1.280468 1.2690104-1.179897.604331-2.5784372.604331-3.7583337 0-.5364644-.2918972-.9801412-.728626-1.2804688-1.2604166-.6126844-1.1596383-.6126844-2.5471326 0-3.7067709.3005738-.531602.7441891-.9682703 1.2804688-1.2604166 1.1806708-.6053097 2.5805267-.6053097 3.7611977 0l-.002864-.0028646Zm-3.1080733.9481771c-.3579151.2109386-.6488843.51879-.8393229.8880208-.199745.3986731-.2981336.8404379-.2864584 1.2861979-.0118157.4522002.0864941.9004927.2864584 1.30625.187023.373118.4786755.6836831.8393229.89375.7647194.4188503 1.6902284.4188503 2.4549483 0 .359521-.2076328.65108-.5151134.839323-.8851562.205465-.4043071.308736-.8527999.300781-1.30625.007721-.4470173-.095629-.888962-.300781-1.286198-.19031-.369322-.48131-.6772055-.839323-.8880208-.762601-.4270496-1.6923478-.4270496-2.4549483 0v-.0085937Z"/>
        </g>
        <g fill="#B1B1B1" fill-rule="nonzero">
            <path d="M509.6149733 225.4812834h-12.3529412v6.1764706h16.3957219z"/>
            <path d="M509.6149733 201H483v30.657754h7.18716578v-24.48128341h19.42780752v6.17647061h-12.3529412v6.1764706h12.2406417c3.368984 0 6.1764706-2.6951872 6.1764706-6.1764706v-6.17647061c0-3.48128342-2.6951872-6.17647059-6.0641711-6.17647059Z"/>
            <g>
                <path d="M662.679144 209.98395757c-4.716578 0-7.748663 2.35828873-7.748663 7.18716573v4.1550803c0 4.604278 2.807486 6.8502673 8.42246 6.8502673h1.796791v-2.5828877h-1.796791c-4.15508 0-5.390375-1.1229946-5.390375-4.4919786v-2.2459893h12.128343v-1.7967914c0-4.7165776-2.919786-7.07486633-7.411765-7.07486633Zm-.1123 2.58288773c2.919787 0 4.604279 1.459893 4.604279 3.8181818h-9.208557c.224599-2.4705882 1.459893-3.8181818 4.604278-3.8181818ZM644.149732 217.9572196v10.2192513h3.032086v-10.2192513c0-3.8181818 1.010695-5.3903743 5.278075-5.3903743v-2.58288773c-6.064172 0-8.310161 2.58288773-8.310161 7.97326203ZM682.44385 216.8342249l-5.614973-6.51336894h-3.818182l7.636363 8.53475934L672 228.1764709h3.930481l6.064171-7.4117647 6.513369 7.4117647h3.930481l-8.647059-9.3208556 7.636364-8.53475934h-3.705882zM595.6363632 209.98395757c-5.0534759 0-7.6363636 2.47058823-7.6363636 7.41176473v3.5935829c0 4.9411764 2.5828877 7.4117647 7.6363636 7.4117647 5.1657754 0 7.6363636-2.3582888 7.6363636-7.2994653v-3.8181818c-.1122994-4.7165775-2.5828877-7.29946523-7.6363636-7.29946523Zm-.1122995 2.47058823c3.368984 0 4.6042781 1.7967914 4.6042781 5.0534759v3.4812835c0 3.2566845-1.3475936 5.0534759-4.6042781 5.0534759-3.2566845 0-4.604278-1.7967914-4.604278-5.0534759v-3.4812835c0-3.2566845 1.3475935-5.0534759 4.604278-5.0534759ZM527.80748619 205.26738003v22.90909087h3.03208556v-9.8823529h3.25668449l6.85026736 9.8823529h3.7058824l-7.2994653-10.2192513c3.368984-.7860963 5.7272728-2.1336898 5.7272728-6.28877005 0-4.26737968-2.9197861-6.40106952-8.98395726-6.40106952h-6.28877005Zm3.14438502 2.47058823h3.2566845c3.48128339 0 5.95187169.67379679 5.95187169 3.93048129 0 3.59358285-2.8074867 4.04278075-5.95187169 4.04278075h-3.2566845v-7.97326204ZM631.90909 209.98395757c-5.053475 0-7.6363632 2.47058823-7.6363632 7.41176473v3.5935829c0 4.9411764 2.5828882 7.4117647 7.6363632 7.4117647 5.165776 0 7.636364-2.3582888 7.636364-7.2994653v-3.8181818c-.112299-4.7165775-2.582888-7.29946523-7.636364-7.29946523Zm-.112299 2.47058823c3.368984 0 4.604278 1.7967914 4.604278 5.0534759v3.4812835c0 3.2566845-1.347594 5.0534759-4.604278 5.0534759s-4.604278-1.7967914-4.604278-5.0534759v-3.4812835c0-3.2566845 1.347594-5.0534759 4.604278-5.0534759ZM607.9893044 207.85026773v20.32620317h3.0320855v-10.4438502h9.657754v-2.5828877h-9.657754v-7.29946527h9.657754v-2.5828877h-12.6898395zM567.8983953 202.90909126v18.41711234c0 4.604278 2.6951871 7.0748663 7.7486631 7.0748663 5.0534759 0 7.4117647-2.3582888 7.4117647-7.2994653v-4.0427807c.1122995-4.6042781-2.4705882-7.07486633-6.8502674-7.07486633-2.2459893 0-3.8181818.67379679-5.2780749 1.90909091v-8.98395722h-3.0320855Zm7.6363636 9.65775404c3.368984 0 4.6042781 1.7967914 4.6042781 4.7165775v4.0427808c0 2.9197861-1.0106952 4.7165775-4.6042781 4.7165775-3.144385 0-4.6042781-1.5721925-4.6042781-4.7165775v-4.0427808c0-3.144385 1.5721926-4.7165775 4.6042781-4.7165775ZM555.6577536 209.98395757c-5.053476 0-7.6363637 2.47058823-7.6363637 7.41176473v3.5935829c0 4.9411764 2.5828877 7.4117647 7.6363637 7.4117647 5.1657754 0 7.6363636-2.3582888 7.6363636-7.2994653v-3.8181818c-.1122995-4.7165775-2.5828877-7.29946523-7.6363636-7.29946523Zm-.1122995 2.47058823c3.368984 0 4.6042781 1.7967914 4.6042781 5.0534759v3.4812835c0 3.2566845-1.3475936 5.0534759-4.6042781 5.0534759-3.2566845 0-4.6042781-1.7967914-4.6042781-5.0534759v-3.4812835c0-3.2566845 1.3475936-5.0534759 4.6042781-5.0534759Z"/>
            </g>
        </g>
    </g>
</svg>
