<?xml version="1.0" encoding="UTF-8"?>
<svg width="1275px" height="535px" viewBox="0 0 1275 535" version="1.1" xmlns="http://www.w3.org/2000/svg" xmlns:xlink="http://www.w3.org/1999/xlink">
    <title>introduction</title>
    <g id="Page-1" stroke="none" stroke-width="1" fill="none" fill-rule="evenodd">
        <rect id="Rectangle" fill="#FFFFFF" x="-120" y="-521" width="2173" height="1315"></rect>
        <rect id="Rectangle" stroke="#979797" fill="#D8D8D8" x="82.5" y="223.5" width="144" height="68" rx="8"></rect>
        <rect id="Rectangle" stroke="#D9D9D9" fill="#F2F2F2" x="434.5" y="82.5" width="395" height="370"></rect>
        <text id="Mida-API" font-family="HelveticaNeue, Helvetica Neue" font-size="24" font-weight="normal" letter-spacing="1.125" fill="#000000">
            <tspan x="101" y="266">Mida API</tspan>
        </text>
        <rect id="Rectangle" stroke="#979797" fill="#D8D8D8" x="540.5" y="329.5" width="182" height="68" rx="8"></rect>
        <rect id="Rectangle" stroke="#979797" fill="#D8D8D8" x="540.5" y="137.5" width="182" height="68" rx="8"></rect>
        <text id="Brokers" font-family="HelveticaNeue, Helvetica Neue" font-size="24" font-weight="normal" letter-spacing="1.125" fill="#000000">
            <tspan x="586" y="181">Brokers</tspan>
        </text>
        <text id="Exchanges" font-family="HelveticaNeue, Helvetica Neue" font-size="24" font-weight="normal" letter-spacing="1.125" fill="#000000">
            <tspan x="567" y="373">Exchanges</tspan>
        </text>
        <rect id="Rectangle" stroke="#979797" fill="#D8D8D8" x="1037.5" y="223.5" width="155" height="68" rx="8"></rect>
        <text id="Markets" font-family="HelveticaNeue, Helvetica Neue" font-size="24" font-weight="normal" letter-spacing="1.125" fill="#000000">
            <tspan x="1067" y="266">Markets</tspan>
        </text>
        <line x1="263.5" y1="258.5" x2="364.5" y2="258.5" id="Line" stroke="#979797" stroke-linecap="square"></line>
        <path id="Line" d="M523.938631,171.259994 L518.203322,179.527777 L516.283,176.018 L364.740006,258.938631 L364.301375,259.178637 L363.821363,258.301375 L364.259994,258.061369 L515.803,175.141 L513.88322,171.632417 L523.938631,171.259994 Z" fill="#979797" fill-rule="nonzero"></path>
        <path id="Line-2" d="M364.857781,258.307343 L365.275219,258.582562 L516.678,358.403 L518.88053,355.064332 L523.917438,363.775219 L513.926583,362.578213 L516.128,359.239 L364.724781,259.417438 L364.307343,259.142219 L364.857781,258.307343 Z" fill="#979797" fill-rule="nonzero"></path>
        <path id="Line" d="M989,254 L998,258.5 L989,263 L989,258.999 L896,259 L896,258 L989,257.999 L989,254 Z" fill="#979797" fill-rule="nonzero"></path>
        <line x1="776.486815" y1="294.238091" x2="857.786998" y2="134.974849" id="Line" stroke="#979797" stroke-linecap="square" transform="translate(817.374014, 214.974849) rotate(91.886861) translate(-817.374014, -214.974849) "></line>
        <line x1="768.16975" y1="231.894135" x2="867.942201" y2="391.449636" id="Line-2" stroke="#979797" stroke-linecap="square" transform="translate(817.698263, 311.609421) rotate(-91.713929) translate(-817.698263, -311.609421) "></line>
    </g>
</svg>