<?xml version="1.0" encoding="UTF-8"?>
<svg width="1275px" height="678px" viewBox="0 0 1275 678" version="1.1" xmlns="http://www.w3.org/2000/svg" xmlns:xlink="http://www.w3.org/1999/xlink">
    <title>introduction</title>
    <g id="Page-1" stroke="none" stroke-width="1" fill="none" fill-rule="evenodd">
        <rect id="Rectangle" fill="#FFFFFF" x="-120" y="-440" width="2173" height="1315"></rect>
        <rect id="Rectangle" stroke="#979797" fill="#D8D8D8" x="82.5" y="304.5" width="144" height="68" rx="8"></rect>
        <rect id="Rectangle" stroke="#D9D9D9" fill="#F2F2F2" x="434.5" y="82.5" width="395" height="513"></rect>
        <text id="Mida-API" font-family="HelveticaNeue, Helvetica Neue" font-size="24" font-weight="normal" letter-spacing="1.125" fill="#000000">
            <tspan x="101" y="347">Mida API</tspan>
        </text>
        <rect id="Rectangle" stroke="#979797" fill="#D8D8D8" x="540.5" y="468.5" width="182" height="68" rx="8"></rect>
        <rect id="Rectangle" stroke="#979797" fill="#D8D8D8" x="540.5" y="141.5" width="182" height="68" rx="8"></rect>
        <text id="Brokers" font-family="HelveticaNeue, Helvetica Neue" font-size="24" font-weight="normal" letter-spacing="1.125" fill="#000000">
            <tspan x="586" y="185">Brokers</tspan>
        </text>
        <text id="Exchanges" font-family="HelveticaNeue, Helvetica Neue" font-size="24" font-weight="normal" letter-spacing="1.125" fill="#000000">
            <tspan x="567" y="512">Exchanges</tspan>
        </text>
        <rect id="Rectangle" stroke="#979797" fill="#D8D8D8" x="1037.5" y="304.5" width="155" height="68" rx="8"></rect>
        <text id="Markets" font-family="HelveticaNeue, Helvetica Neue" font-size="24" font-weight="normal" letter-spacing="1.125" fill="#000000">
            <tspan x="1067" y="347">Markets</tspan>
        </text>
        <line x1="263.5" y1="339.5" x2="364.5" y2="339.5" id="Line" stroke="#979797" stroke-linecap="square"></line>
        <path id="Line" d="M523.848039,175.141017 L520.814192,184.735065 L517.942,181.95 L364.858983,339.848039 L364.510945,340.207022 L363.792978,339.510945 L364.141017,339.151961 L517.224,181.254 L514.352491,178.470368 L523.848039,175.141017 Z" fill="#979797" fill-rule="nonzero"></path>
        <path id="Line-2" d="M365.008811,339.292948 L365.357931,339.650879 L517.923,496.066 L520.78633,493.273083 L523.849121,502.857931 L514.343568,499.557254 L517.206,496.764 L364.642069,340.349121 L364.292948,339.991189 L365.008811,339.292948 Z" fill="#979797" fill-rule="nonzero"></path>
        <path id="Line" d="M989,335 L998,339.5 L989,344 L989,339.999 L896,340 L896,339 L989,338.999 L989,335 Z" fill="#979797" fill-rule="nonzero"></path>
        <line x1="738.018508" y1="337.61489" x2="897.431492" y2="175.728285" id="Line" stroke="#979797" stroke-linecap="square" transform="translate(817.725000, 256.671588) rotate(91.886861) translate(-817.725000, -256.671588) "></line>
        <line x1="738.851945" y1="340.579358" x2="896.596953" y2="501.919573" id="Line-2" stroke="#979797" stroke-linecap="square" transform="translate(817.724984, 421.249466) rotate(-91.713929) translate(-817.724984, -421.249466) "></line>
    </g>
</svg>