<?xml version="1.0" encoding="UTF-8"?>
<svg width="1281px" height="588px" viewBox="0 0 1281 588" version="1.1" xmlns="http://www.w3.org/2000/svg" xmlns:xlink="http://www.w3.org/1999/xlink">
    <title>introduction</title>
    <g id="Page-1" stroke="none" stroke-width="1" fill="none" fill-rule="evenodd">
        <rect id="Rectangle" fill="#FFFFFF" x="0" y="9" width="1281" height="579"></rect>
        <rect id="Rectangle" stroke="#979797" fill="#D8D8D8" x="0.5" y="297.5" width="144" height="68"></rect>
        <rect id="Rectangle" stroke="#979797" fill="#F2F2F2" x="352.5" y="75.5" width="672" height="512"></rect>
        <text id="Mida-API" font-family="HelveticaNeue, Helvetica Neue" font-size="24" font-weight="normal" letter-spacing="1.125" fill="#000000">
            <tspan x="19" y="340">Mida API</tspan>
        </text>
        <rect id="Rectangle" stroke="#979797" fill="#D8D8D8" x="457.5" y="125.5" width="197" height="68"></rect>
        <text id="MetaTrader-4" font-family="HelveticaNeue, Helvetica Neue" font-size="24" font-weight="normal" letter-spacing="1.125" fill="#000000">
            <tspan x="478" y="169">MetaTrader 4</tspan>
        </text>
        <rect id="Rectangle" stroke="#979797" fill="#D8D8D8" x="457.5" y="469.5" width="197" height="68"></rect>
        <text id="cTrader" font-family="HelveticaNeue, Helvetica Neue" font-size="24" font-weight="normal" letter-spacing="1.125" fill="#000000">
            <tspan x="512" y="512">cTrader</tspan>
        </text>
        <rect id="Rectangle" stroke="#979797" fill="#D8D8D8" x="798.5" y="297.5" width="144" height="68"></rect>
        <text id="Brokers" font-family="HelveticaNeue, Helvetica Neue" font-size="24" font-weight="normal" letter-spacing="1.125" fill="#000000">
            <tspan x="825" y="341">Brokers</tspan>
        </text>
        <rect id="Rectangle" stroke="#979797" fill="#D8D8D8" x="1125.5" y="297.5" width="155" height="68"></rect>
        <text id="Markets" font-family="HelveticaNeue, Helvetica Neue" font-size="24" font-weight="normal" letter-spacing="1.125" fill="#000000">
            <tspan x="1155" y="340">Markets</tspan>
        </text>
        <rect id="Rectangle" stroke="#979797" fill="#D8D8D8" x="457.5" y="297.5" width="197" height="68"></rect>
        <text id="MetaTrader-5" font-family="HelveticaNeue, Helvetica Neue" font-size="24" font-weight="normal" letter-spacing="1.125" fill="#000000">
            <tspan x="478" y="341">MetaTrader 5</tspan>
        </text>
        <path id="Line" d="M415,328 L424,332.5 L415,337 L415,333 L182,333 L182,332 L415,332 L415,328 Z" fill="#979797" fill-rule="nonzero"></path>
        <path id="Line" d="M765,326 L774,330.5 L765,335 L765,331 L677,331 L677,330 L765,330 L765,326 Z" fill="#979797" fill-rule="nonzero"></path>
        <path id="Line" d="M1082,326 L1091,330.5 L1082,335 L1082,331 L964,331 L964,330 L1082,330 L1082,326 Z" fill="#979797" fill-rule="nonzero"></path>
        <line x1="671.5" y1="168.5" x2="719.5" y2="168.5" id="Line" stroke="#979797" stroke-linecap="square"></line>
        <line x1="671.5" y1="495.5" x2="719.5" y2="495.5" id="Line" stroke="#979797" stroke-linecap="square"></line>
        <path id="Line" d="M871,9 L871,260 L875,260 L870.5,269 L866,260 L870,260 L870,9 L871,9 Z" fill="#979797" fill-rule="nonzero"></path>
        <line x1="282.5" y1="6.5" x2="870.5" y2="14.5" id="Line" stroke="#979797" stroke-linecap="square" transform="translate(576.500000, 10.500000) rotate(-1.000000) translate(-576.500000, -10.500000) "></line>
        <line x1="282.5" y1="332.5" x2="282.5" y2="12.5" id="Line" stroke="#979797" stroke-linecap="square"></line>
        <path id="Line" d="M441.848039,168.141017 L438.814192,177.735065 L435.942,174.95 L282.858983,332.848039 L282.510945,333.207022 L281.792978,332.510945 L282.141017,332.151961 L435.224,174.254 L432.352491,171.470368 L441.848039,168.141017 Z" fill="#979797" fill-rule="nonzero"></path>
        <line x1="719.5" y1="169.5" x2="719.5" y2="495.5" id="Line" stroke="#979797" stroke-linecap="square"></line>
        <path id="Line-2" d="M283.008811,332.292948 L283.357931,332.650879 L435.923,489.066 L438.78633,486.273083 L441.849121,495.857931 L432.343568,492.557254 L435.206,489.764 L282.642069,333.349121 L282.292948,332.991189 L283.008811,332.292948 Z" fill="#979797" fill-rule="nonzero"></path>
    </g>
</svg>