<?xml version="1.0" encoding="UTF-8"?>
<svg viewBox="0 0 369 98" version="1.1" xmlns="http://www.w3.org/2000/svg" xmlns:xlink="http://www.w3.org/1999/xlink">
    <title>logo</title>
    <g stroke="none" stroke-width="1" fill="none" fill-rule="evenodd">
        <g transform="translate(0.312000, 0.616000)" fill="#000000" fill-rule="nonzero">
            <g transform="translate(285.600000, 0.000000)">
                <path d="M41.216,0 L81.664,96.384 L67.328,96.384 L57.728,72.064 L22.144,72.064 L12.288,96.384 L0,96.384 L40.448,0 L41.216,0 Z M40.32,27.52 L26.624,61.312 L53.504,61.312 L40.32,27.52 Z"/>
            </g>
            <g transform="translate(188.096000, 3.840000)">
                <path d="M25.344,0 C36.864,0 46.4,2.28266667 53.952,6.848 C61.504,11.4133333 67.008,17.3013333 70.464,24.512 C73.92,31.7226667 75.648,39.3386667 75.648,47.36 C75.648,56.32 73.5573333,64.2346667 69.376,71.104 C65.1946667,77.9733333 59.6053333,83.264 52.608,86.976 C45.6106667,90.688 38.016,92.544 29.824,92.544 L29.824,92.544 L0,92.544 L0,0 Z M28.544,11.904 L12.416,11.904 L12.416,80.512 L27.392,80.512 C34.2186667,80.512 40.32,79.168 45.696,76.48 C51.072,73.792 55.2746667,69.888 58.304,64.768 C61.3333333,59.648 62.848,53.5466667 62.848,46.464 C62.848,39.2106667 61.2693333,32.9813333 58.112,27.776 C54.9546667,22.5706667 50.752,18.624 45.504,15.936 C40.256,13.248 34.6026667,11.904 28.544,11.904 L28.544,11.904 Z"/>
            </g>
            <g transform="translate(133.856000, 3.840000)">
                <polygon points="12.416 92.544 12.416 5.68434189e-14 5.68434189e-14 5.68434189e-14 5.68434189e-14 92.544"/>
            </g>
            <g transform="translate(0.000000, 0.896000)">
                <polygon points="12.032 95.488 12.032 37.248 45.44 83.84 45.696 83.84 79.744 35.584 79.744 95.488 92.032 95.488 92.032 -1.13686838e-13 91.904 -1.13686838e-13 45.696 64.512 0.128 -1.13686838e-13 5.68434189e-14 -1.13686838e-13 5.68434189e-14 95.488"/>
            </g>
        </g>
    </g>
</svg>
