<?xml version="1.0" encoding="UTF-8"?>
<svg width="703px" height="156px" viewBox="0 0 703 156" version="1.1" xmlns="http://www.w3.org/2000/svg" xmlns:xlink="http://www.w3.org/1999/xlink">
    <title>logo</title>
    <defs>
        <linearGradient x1="50%" y1="1.66510735%" x2="50%" y2="100%" id="linearGradient-1">
            <stop stop-color="#E8C475" offset="0%"></stop>
            <stop stop-color="#CAB33D" offset="100%"></stop>
        </linearGradient>
    </defs>
    <g id="Page-1" stroke="none" stroke-width="1" fill="none" fill-rule="evenodd">
        <rect id="Rectangle" fill="#FFFFFF" x="-357" y="-331" width="1547" height="1076"></rect>
        <g id="Logo" transform="translate(0.000000, -15.000000)">
            <path d="M20.34,161 L20.34,88.28 L65.16,150.38 L65.52,150.38 L111.42,85.22 L111.42,161 L132.3,161 L132.3,25.28 L131.94,25.28 L65.52,117.8 L0.18,25.28 L0,25.28 L0,161 L20.34,161 Z M207.36,161 L207.36,29.96 L186.3,29.96 L186.3,161 L207.36,161 Z M304.92,161 C316.68,161 327.54,158.39 337.5,153.17 C347.46,147.95 355.41,140.51 361.35,130.85 C367.29,121.19 370.26,110 370.26,97.28 C370.26,85.76 367.8,74.9 362.88,64.7 C357.96,54.5 350.13,46.16 339.39,39.68 C328.65,33.2 315.06,29.96 298.62,29.96 L298.62,29.96 L261.36,29.96 L261.36,161 L304.92,161 Z M301.14,140.84 L282.42,140.84 L282.42,49.94 L304.38,49.94 C311.58,49.94 318.57,51.56 325.35,54.8 C332.13,58.04 337.71,63.11 342.09,70.01 C346.47,76.91 348.66,85.52 348.66,95.84 C348.66,105.32 346.65,113.45 342.63,120.23 C338.61,127.01 333.03,132.14 325.89,135.62 C318.75,139.1 310.5,140.84 301.14,140.84 L301.14,140.84 Z M415.62,161 L428.22,130.22 L475.92,130.22 L487.98,161 L512.1,161 L454.14,24.56 L452.88,24.56 L391.5,161 L415.62,161 Z M468.9,112.22 L435.6,112.22 L452.52,70.82 L468.9,112.22 Z" id="MIDA" fill="#000000" fill-rule="nonzero"></path>
            <g id="Fingerprint" transform="translate(541.000000, 0.000000)">
                <circle id="Circle" fill="url(#linearGradient-1)" cx="84" cy="93" r="78"></circle>
                <path d="M138.293207,22.7486779 C137.65332,22.7486779 136.697754,22.4353119 136.066399,22.1134765 C118.559077,13.2630043 102.962887,9.47720423 84.5,9.47720423 C66.0371134,9.47720423 48.5297921,13.8982057 32.9336014,22.4353119 C30.706793,23.6972453 27.8400971,22.7486779 26.568854,20.5381772 C25.2976109,18.3276765 26.2531762,15.4819744 28.4799846,14.220041 C45.6545644,5.05620279 64.7573385,0 84.4914682,0 C104.225598,0 121.417241,4.42100144 140.520015,13.906675 C142.746824,15.1686084 143.702389,18.0143105 142.431146,20.2248112 C141.791259,21.8001105 140.195806,22.7486779 138.293207,22.7486779 L138.293207,22.7486779 Z M4.56243763,72 C3.60591057,72 2.64938352,71.683673 2.01739242,71.0424697 C-0.211657237,69.443736 -0.527652783,66.5796944 0.744869821,64.6646338 C9.97706401,51.5840857 21.7713842,41.3761285 35.4702182,34.3656387 C64.7894806,19.3700299 102.068415,19.053703 131.379137,34.3656387 C145.402506,41.3846779 156.872291,51.5926351 166.113025,64.6731832 C167.710084,66.5882438 167.069552,69.7771618 164.840503,71.0510191 C162.611453,72.6497527 159.741872,72.0085494 158.469349,69.7771618 C150.185142,57.9790203 139.671885,48.7285935 126.921037,42.3422082 C100.15536,28.6290062 66.0620032,28.6290062 39.612322,42.3422082 C26.8700151,48.7200441 16.3567579,58.2867979 8.0640099,69.7686124 C7.4320188,71.0424697 6.1594962,72 4.56243763,72 L4.56243763,72 Z M62.0257511,183 C60.7467811,183 59.4678112,182.685706 58.8240343,181.734329 C50.8154506,173.809022 46.3347639,168.42355 39.9313305,157.329818 C33.527897,145.921793 30,131.973931 30,117.083187 C30.3175966,89.5017575 54.0171674,67 83.1587983,67 C112.300429,67 136,89.5017575 136,116.760398 C136,119.29174 134.077253,121.517282 131.193133,121.517282 C128.635193,121.517282 126.386266,119.614528 126.386266,116.760398 C126.703863,94.572935 107.167382,76.5137668 83.1502146,76.5137668 C59.1330472,76.5137668 39.5965665,94.5814294 39.5965665,117.083187 C39.5965665,130.393966 42.4806867,142.753368 48.2403433,152.581429 C54.3261803,163.360867 58.1716738,167.794962 65.5364807,175.083187 C67.4592275,176.98594 67.4592275,179.84007 65.5364807,181.742824 C64.583691,182.362917 63.304721,183 62.0257511,183 L62.0257511,183 Z M129.415746,167 C118.316123,167 108.805803,164.12274 100.876286,158.693625 C87.2439774,149.428164 79,134.091342 79,117.795433 C79,115.243578 80.9037638,113 83.7594096,113 C86.6150554,113 88.5188192,114.918173 88.5188192,117.795433 C88.5188192,130.897241 95.1819927,143.356803 106.596077,151.020932 C113.25925,155.490961 120.865807,157.734539 130.061666,157.734539 C132.279891,157.734539 136.087418,157.417697 139.571986,156.775452 C142.104672,156.458611 144.331396,158.05138 144.960318,160.611798 C145.274779,163.163654 143.693975,165.407231 141.15279,166.040913 C135.118539,166.674596 130.682089,167 129.415746,167 L129.415746,167 Z M110.635491,186 C110.317326,186 109.672399,186 109.354235,185.684454 C94.5983025,181.548246 84.6492266,176.141326 74.3819867,166.274123 C61.2254732,153.225877 54.1656709,136.041423 54.1656709,117.910331 C54.1656709,102.951754 66.9954213,90.5431287 83.0412083,90.5431287 C99.0869954,90.5431287 111.916746,102.636209 111.916746,117.910331 C111.916746,127.777534 120.575967,136.049951 131.488134,136.049951 C142.400302,136.049951 151.059523,128.09308 151.059523,117.910331 C151.059523,82.9103314 120.575967,54.587963 83.3593724,54.587963 C56.7281814,54.587963 32.3499358,69.2224659 21.4377687,92.1379142 C17.9121671,99.7707115 15.9859847,108.367203 15.9859847,118.225877 C15.9859847,125.543129 16.6309118,136.996589 22.4008599,151.63962 C23.3639511,154.181043 22.0826959,156.730994 19.8383494,157.68616 C17.275839,158.641326 14.7047295,157.370614 13.7416383,155.144737 C9.25294545,143.051657 7,130.958577 7,118.549951 C7,107.412037 9.24434642,97.2292885 13.4148752,88.6413255 C25.9264616,62.8689084 53.5207438,46 83.6775364,46 C126.345915,46 161,78.458577 161,118.549951 C161,133.508528 148.17025,145.917154 132.124463,145.917154 C116.078676,145.917154 103.248925,133.508528 103.248925,118.549951 C103.248925,108.682749 94.5897035,100.410331 83.6775364,100.410331 C72.7653694,100.410331 64.1061477,108.367203 64.1061477,118.549951 C64.1061477,134.463694 70.2028589,149.413743 81.7513541,160.551657 C90.7373388,169.13962 99.0783963,174.230994 112.23491,177.736111 C114.79742,178.375731 116.087275,180.917154 115.442347,183.467105 C114.487855,184.413743 112.561673,186 110.635491,186 Z" fill="#FFFFFF" fill-rule="nonzero"></path>
            </g>
        </g>
    </g>
</svg>