<?xml version="1.0" encoding="utf-8"?>
<svg viewBox="0 0 447 99" version="1.1" xmlns="http://www.w3.org/2000/svg" xmlns:xlink="http://www.w3.org/1999/xlink">
    <title>MidaFXLogo</title>
    <defs>
        <linearGradient x1="13.389511%" y1="50%" x2="268.137827%" y2="50%" id="linear-gradient-1">
            <stop stop-color="#E9D34F" offset="0%"/>
            <stop stop-color="#CFB13A" offset="100%"/>
        </linearGradient>
        <linearGradient x1="13.389511%" y1="50%" x2="268.137827%" y2="50%" id="linear-gradient-2">
            <stop stop-color="#E9D34F" offset="0%"/>
            <stop stop-color="#CFB13A" offset="100%"/>
        </linearGradient>
    </defs>
    <g stroke="none" stroke-width="1" fill="none" fill-rule="evenodd">
        <g transform="translate(0.900000, 0.000000)" fill-rule="nonzero">
            <polygon fill="url(#linear-gradient-1)" transform="translate(206.355127, 51.394431) scale(-1, 1) translate(-206.355127, -51.394431)" points="0.858791246 39.6031494 411.855127 42 411.855127 61 2.38848188 63.1857132"/>
            <g transform="translate(367.000000, 5.448000)">
                <polyline fill="url(#linear-gradient-2)" points="39 57.724 61.1 91.272 78.1 91.272 50.036 46.192 78.1 0.552 61.1 0.552 42.1 34.164"/>
                <polygon fill="#1E1E1E" points="41.796 34.164 20.1 0.552 2.1 1.552 30.636 45.324 0.1 91.272 18.1 91.272 38.696 57.724"/>
            </g>
            <g transform="translate(323.096000, 5.448000)" fill="#1E1E1E">
                <polygon points="14.508 91.272 14.508 54.072 49.6 54.072 49.6 40.308 14.508 40.308 14.508 14.888 54.808 14.888 64.004 0.552 0.004 0.552 0 91.272"/>
            </g>
            <g transform="translate(241.000000, 42.000000)" fill="#1E1E1E">
                <path d="M26.412,-3.55271368e-15 C34.9266667,-3.55271368e-15 41.292,3.14133333 45.508,9.424 L45.508,9.424 L46.5,2.356 L59.272,2.356 L59.272,54.808 L45.384,54.808 L45.384,47.244 L45.0416055,47.6359516 C43.1788881,49.7160623 40.7303529,51.6314118 37.696,53.382 C34.472,55.242 30.7106667,56.172 26.412,56.172 C21.3693333,56.172 16.864,55.118 12.896,53.01 C8.928,50.902 5.78666667,47.7813333 3.472,43.648 C1.15733333,39.5146667 3.55271368e-15,34.5133333 3.55271368e-15,28.644 C3.55271368e-15,22.94 1.19866667,17.918 3.596,13.578 C5.99333333,9.238 9.19666667,5.89 13.206,3.534 C17.2153333,1.178 21.6173333,-3.55271368e-15 26.412,-3.55271368e-15 Z M29.76,11.408 C25.3786667,11.408 21.6586667,12.958 18.6,16.058 C15.5413333,19.158 14.012,23.1053333 14.012,27.9 C14.012,31.0413333 14.756,33.8933333 16.244,36.456 C17.732,39.0186667 19.716,41.044 22.196,42.532 C24.676,44.02 27.3626667,44.764 30.256,44.764 C34.0586667,44.764 37.262,43.7926667 39.866,41.85 C42.47,39.9073333 44.3093333,37.1586667 45.384,33.604 L45.384,33.604 L45.384,22.196 L45.2551562,21.7962292 C44.2302187,18.7560764 42.3511667,16.2853333 39.618,14.384 C36.766,12.4 33.48,11.408 29.76,11.408 Z"/>
            </g>
            <g transform="translate(163.000000, 0.000000)" fill="#1E1E1E">
                <path d="M60.264,0 L60.264,96.72 L46.376,96.72 L46.376,89.652 L45.9970851,90.0146238 C40.2905066,95.3942079 33.5554783,98.084 25.792,98.084 C20.9146667,98.084 16.5126667,96.9266667 12.586,94.612 C8.65933333,92.2973333 5.58,88.9906667 3.348,84.692 C1.116,80.3933333 1.13686838e-13,75.392 1.13686838e-13,69.688 C1.13686838e-13,63.984 1.178,59.024 3.534,54.808 C5.89,50.592 9.15533333,47.3886667 13.33,45.198 C17.5046667,43.0073333 22.2373333,41.912 27.528,41.912 C31.3306667,41.912 34.9266667,42.6353333 38.316,44.082 C41.7053333,45.5286667 44.4333333,47.492 46.5,49.972 L46.5,49.972 L46.5,0 L60.264,0 Z M30.256,52.824 C27.3626667,52.824 24.676,53.5473333 22.196,54.994 C19.716,56.4406667 17.732,58.4246667 16.244,60.946 C14.756,63.4673333 14.012,66.2986667 14.012,69.44 C14.012,72.5813333 14.756,75.4333333 16.244,77.996 C17.732,80.5586667 19.716,82.584 22.196,84.072 C24.676,85.56 27.3626667,86.304 30.256,86.304 C34.224,86.304 37.6133333,85.312 40.424,83.328 C43.2346667,81.344 45.2186667,78.5746667 46.376,75.02 L46.376,75.02 L46.376,63.86 L46.246941,63.4600139 C45.2187025,60.4165602 43.2983889,57.9045556 40.486,55.924 C37.5513333,53.8573333 34.1413333,52.824 30.256,52.824 Z"/>
            </g>
            <g transform="translate(129.000000, 18.000000)" fill="#1E1E1E">
                <path d="M14.508,78.616 L14.508,26.164 L0.62,26.164 L0.62,78.616 L14.508,78.616 Z M8.06,14.756 C10.044,14.756 11.842,14.0533333 13.454,12.648 C15.066,11.2426667 15.872,9.50666667 15.872,7.44 C15.872,5.37333333 15.066,3.61666667 13.454,2.17 C11.842,0.723333333 10.044,0 8.06,0 C5.99333333,0 4.13333333,0.723333333 2.48,2.17 C0.826666667,3.61666667 3.01980663e-14,5.37333333 3.01980663e-14,7.44 C3.01980663e-14,9.50666667 0.826666667,11.2426667 2.48,12.648 C4.13333333,14.0533333 5.99333333,14.756 8.06,14.756 Z"/>
            </g>
            <g transform="translate(15.000000, 3.000000)" fill="#1E1E1E">
                <polygon points="14.012 93.496 14.012 43.4 44.888 86.18 45.136 86.18 76.756 41.292 76.756 93.496 91.14 93.496 91.14 0 90.892 0 45.136 63.736 0.124 0 0 0 0 93.496"/>
            </g>
        </g>
    </g>
</svg>
