<svg xmlns="http://www.w3.org/2000/svg" viewBox="0 0 845 188">
    <defs>
      <linearGradient id="a" x1="50%" x2="50%" y1="3.23939135%" y2="96.9073994%">
        <stop offset="0%" stop-color="#EFD941"/>
        <stop offset="99.9669642%" stop-color="#ECDA3C"/>
      </linearGradient>
    </defs>
    <g fill="none" fill-rule="evenodd">
      <path fill="#FFF" d="M-172.977837-226H1024.97784c14.2643 0 19.43688 1.48521 24.65169 4.274123 5.21482 2.788914 9.30743 6.881531 12.09635 12.096346 2.78891 5.214815 4.27412 10.387394 4.27412 24.651694v557.955674c0 14.2643-1.48521 19.436879-4.27412 24.651694-2.78892 5.214815-6.88153 9.307432-12.09635 12.096346C1044.41472 412.51479 1039.24214 414 1024.97784 414H-172.977837c-14.2643 0-19.436879-1.48521-24.651694-4.274123-5.214815-2.788914-9.307432-6.881531-12.096346-12.096346C-212.51479 392.414716-214 387.242137-214 372.977837v-557.955674c0-14.2643 1.48521-19.436879 4.274123-24.651694 2.788914-5.214815 6.881531-9.307432 12.096346-12.096346C-192.414716-224.51479-187.242137-226-172.977837-226Z"/>
      <path fill="#000" fill-rule="nonzero" d="M24.408 175.2V87.936l53.784 74.52h.432l55.08-78.192V175.2h25.056V12.336h-.432L78.624 123.36.216 12.336H0V175.2h24.408Zm224.424 0V17.952H223.56V175.2h25.272Zm117.072 0c14.112 0 27.144-3.132 39.096-9.396 11.952-6.264 21.492-15.192 28.62-26.784 7.128-11.592 10.692-25.02 10.692-40.284 0-13.824-2.952-26.856-8.856-39.096-5.904-12.24-15.3-22.248-28.188-30.024-12.888-7.776-29.196-11.664-48.924-11.664h-44.712V175.2h52.272Zm-4.536-24.192h-22.464V41.928h26.352c8.64 0 17.028 1.944 25.164 5.832 8.136 3.888 14.832 9.972 20.088 18.252s7.884 18.612 7.884 30.996c0 11.376-2.412 21.132-7.236 29.268s-11.52 14.292-20.088 18.468c-8.568 4.176-18.468 6.264-29.7 6.264ZM498.744 175.2l15.12-36.936h57.24l14.472 36.936h28.944L544.968 11.472h-1.512L469.8 175.2h28.944Zm63.936-58.536h-39.96l20.304-49.68 19.656 49.68Z"/>
      <g transform="translate(656.2)">
        <circle cx="93.8" cy="93.6" r="93.6" fill="url(#a)"/>
        <path fill="#FFF" fill-rule="nonzero" d="M159.951848 9.29841348c-.767865 0-1.914543-.3760392-2.67217-.76224163C136.270893-2.08439482 117.555464-6.62735492 95.4-6.62735492c-22.1554639 0-43.1642494 5.30520172-61.8796783 15.5497292-2.6721701 1.51432002-6.1122051.3760392-7.6376969-2.27656166-1.5254917-2.65260087-.3788134-6.06744336 2.2933567-7.5817634C48.7854773-11.9325566 71.7088062-18 95.3897618-18c23.6809552 0 44.3109282 5.3052017 67.2342562 16.68801003 2.672171 1.51432003 3.818849 4.92916252 2.293357 7.58176338-.767865 1.89035924-2.682408 3.02864007-4.965527 3.02864007ZM-.52507484 68.4c-1.14783247 0-2.29566494-.3795924-3.05405425-1.1490364-2.67485959-1.9184804-3.05405425-5.3553303-1.52702713-7.653403C5.97247681 43.9009028 20.1256611 31.6513542 36.5642618 23.2387664c35.1831149-17.99473048 79.9178352-18.37432285 115.0907022 0 16.828044 8.4228471 30.591785 20.6723957 41.680666 36.3690534 1.916471 2.2980728 1.147833 6.1247743-1.527027 7.6534031-2.674859 1.9184804-6.118357 1.1490364-7.645384-1.5286288-9.941049-14.1577697-22.556958-25.2582819-37.857974-32.9219442-32.118812-16.4558425-73.0308412-16.4558425-104.7704587 0-15.2907682 7.653403-27.9066769 19.1335076-37.85797443 32.911685C2.91842256 67.2509636 1.39139544 68.4-.52507484 68.4ZM68.4309013 201.6c-1.534764 0-3.0695279-.377153-3.8420601-1.518805-9.6103004-9.510369-14.9871245-15.972935-22.6712446-29.285413C34.2334764 157.106151 30 140.368717 30 122.499824 30.3811159 89.402109 58.8206009 62.4 93.7905579 62.4 128.760515 62.4 157.2 89.402109 157.2 122.112478c0 3.03761-2.307296 5.70826-5.76824 5.70826-3.069528 0-5.768241-2.283304-5.768241-5.70826.381116-26.624956-23.062661-48.2959578-51.8832615-48.2959578-28.8206008 0-52.2643777 21.6811951-52.2643777 48.6833038 0 15.972935 3.4609442 30.804218 10.3725322 42.597891 7.3030043 12.935325 11.9175966 18.256239 20.7553648 27.002109 2.3072962 2.283304 2.3072962 5.70826 0 7.991564-1.1433476.744113-2.6781116 1.508612-4.2128755 1.508612Zm80.8679937-19.2c-13.319547 0-24.731932-3.452712-34.247351-9.96765C98.6927728 161.313796 88.8 142.90961 88.8 123.35452c0-3.062227 2.2845166-5.75452 5.7112915-5.75452s5.7112915 2.301808 5.7112915 5.75452c0 15.722169 7.995808 30.673644 21.692709 39.870599 7.995808 5.364034 17.123676 8.056327 28.158707 8.056327 2.66187 0 7.230903-.380209 11.412384-1.150904 3.039223-.380209 5.711292 1.531114 6.465998 4.603616.377354 3.062226-1.519611 5.754519-4.569033 6.514938-7.241102.760419-12.564841 1.150904-14.084453 1.150904Zm-22.536306 22.8c-.381797 0-1.15571 0-1.537507-.378655-17.707119-4.96345-29.64601-11.451754-41.9666979-23.292398-15.7878162-15.657894-24.259579-36.279239-24.259579-58.036549 0-17.950293 15.3957005-32.8406436 34.6506449-32.8406436 19.254944 0 34.650645 14.5116956 34.650645 32.8406436 0 11.840643 10.391066 21.767544 23.485666 21.767544 13.094601 0 23.485667-9.548246 23.485667-21.767544 0-42.0000003-36.580267-75.9868424-81.2401811-75.9868424-31.9574293 0-61.211324 17.5614035-74.3059244 45.0599415-4.230722 9.1593569-6.5421409 19.4751459-6.5421409 31.3055559 0 8.780701.7739126 22.524853 7.6978503 40.096491 1.1557094 3.049707-.3817969 6.109649-3.0750126 7.255848-3.0750125 1.146199-6.1603439-.378655-7.3160534-3.049708C5.10353454 153.661988 2.4 139.150292 2.4 124.259942c0-13.365498 2.6932157-25.5847958 7.6978502-35.8903514C25.1117539 57.4426901 58.2248925 37.2 94.4130437 37.2 145.615099 37.2 187.2 76.1502924 187.2 124.259942c0 17.950292-15.3957 32.840643-34.650645 32.840643-19.254944 0-34.650645-14.890351-34.650645-32.840643 0-11.840644-10.391066-21.767544-23.4856663-21.767544-13.0946005 0-23.4856664 9.548245-23.4856664 21.767544 0 19.096491 7.3160534 37.036549 21.1742476 50.402046 10.7831821 10.305556 20.7924511 16.415205 36.5802671 20.621345 3.075012.767544 4.622837 3.817252 3.848925 6.877193-1.145391 1.135965-3.45681 3.039474-5.768228 3.039474Z"/>
      </g>
    </g>
</svg>
