<?xml version="1.0" encoding="UTF-8"?>
<svg width="528px" height="142px" viewBox="0 0 528 142" version="1.1" xmlns="http://www.w3.org/2000/svg" xmlns:xlink="http://www.w3.org/1999/xlink">
    <title>logo</title>
    <defs>
        <linearGradient x1="50%" y1="0%" x2="50%" y2="100%" id="linearGradient-1">
            <stop stop-color="#000000" offset="0%"></stop>
            <stop stop-color="#000000" offset="100%"></stop>
        </linearGradient>
    </defs>
    <g id="Page-1" stroke="none" stroke-width="1" fill="none" fill-rule="evenodd">
        <rect id="Rectangle" fill="#FFFFFF" x="-380" y="-708" width="1547" height="1076"></rect>
        <g id="MIDA" transform="translate(0.312000, 21.616000)" fill="#000000" fill-rule="nonzero">
            <g id="A" transform="translate(285.600000, 0.000000)">
                <path d="M41.216,0 L81.664,96.384 L67.328,96.384 L57.728,72.064 L22.144,72.064 L12.288,96.384 L0,96.384 L40.448,0 L41.216,0 Z M40.32,27.52 L26.624,61.312 L53.504,61.312 L40.32,27.52 Z"></path>
            </g>
            <g id="D" transform="translate(188.096000, 3.840000)">
                <path d="M25.344,0 C36.864,0 46.4,2.28266667 53.952,6.848 C61.504,11.4133333 67.008,17.3013333 70.464,24.512 C73.92,31.7226667 75.648,39.3386667 75.648,47.36 C75.648,56.32 73.5573333,64.2346667 69.376,71.104 C65.1946667,77.9733333 59.6053333,83.264 52.608,86.976 C45.6106667,90.688 38.016,92.544 29.824,92.544 L29.824,92.544 L0,92.544 L0,0 Z M28.544,11.904 L12.416,11.904 L12.416,80.512 L27.392,80.512 C34.2186667,80.512 40.32,79.168 45.696,76.48 C51.072,73.792 55.2746667,69.888 58.304,64.768 C61.3333333,59.648 62.848,53.5466667 62.848,46.464 C62.848,39.2106667 61.2693333,32.9813333 58.112,27.776 C54.9546667,22.5706667 50.752,18.624 45.504,15.936 C40.256,13.248 34.6026667,11.904 28.544,11.904 L28.544,11.904 Z"></path>
            </g>
            <g id="I" transform="translate(133.856000, 3.840000)">
                <polygon id="Path" points="12.416 92.544 12.416 5.68434189e-14 5.68434189e-14 5.68434189e-14 5.68434189e-14 92.544"></polygon>
            </g>
            <g id="M" transform="translate(0.000000, 0.896000)">
                <polygon id="Path" points="12.032 95.488 12.032 37.248 45.44 83.84 45.696 83.84 79.744 35.584 79.744 95.488 92.032 95.488 92.032 -1.13686838e-13 91.904 -1.13686838e-13 45.696 64.512 0.128 -1.13686838e-13 5.68434189e-14 -1.13686838e-13 5.68434189e-14 95.488"></polygon>
            </g>
        </g>
        <g id="Hand" transform="translate(356.000000, 0.000000)">
            <circle id="Circle" fill="url(#linearGradient-1)" cx="103" cy="69" r="69"></circle>
            <path d="M91.9605795,50.0019126 C87.642004,52.0916579 84.0290452,55.5237318 81.0749496,59.3126091 C84.3491261,52.9635241 89.2812501,45.9195358 96.1604732,42.3212893 C100.475452,40.0646521 104.261758,38.5957158 107.474796,37.4109273 C112.455831,36.4390699 116.129929,35.9542202 116.129929,35.9542202 C115.001374,44.4002442 106.503764,42.9636791 91.9605795,50.0019126 Z M87.9347522,58.2091085 C84.155639,59.8880983 80.9469173,62.7432443 78.2963592,65.9242611 C81.2950503,60.5463141 85.7416581,54.6173363 91.7678116,51.7111156 C95.5490826,49.8882534 98.8520304,48.729362 101.653638,47.7985081 C105.971494,47.1021661 109.148567,46.7870858 109.148567,46.7870858 C107.940172,54.031776 100.661027,52.5549267 87.9347522,58.2091085 Z M85.009428,65.0998728 C81.7079187,66.5673703 78.9048727,69.0613968 76.5895005,71.8402905 C79.2084101,67.1421402 83.0932579,61.962737 88.3584099,59.4233908 C91.6613577,57.8307243 94.5464021,56.8185826 96.993403,56.005704 C100.766043,55.3971242 103.542475,55.1216087 103.542475,55.1216087 C102.485848,61.4505516 96.1266669,60.1607364 85.009428,65.0998728 Z M18.8505899,94.1796764 C20.0445998,92.7294435 25.5826407,101.83993 45.8480618,85.5793767 C66.113483,69.318823 72.8118259,45.5605743 86.0689319,36.5304288 C96.1525611,29.6612454 120.167984,22.8970887 120.167984,22.8970887 C119.903288,32.396258 110.311648,31.7955911 95.0053047,41.3005152 C79.6989612,50.8061588 74.9718329,76.2269572 74.9718329,76.2269572 C82.4156933,76.2758738 91.4052929,69.9138402 95.910882,70.4756616 C100.41719,71.037483 94.2040233,78.0498194 89.4517202,80.7280024 C85.3402982,83.0443466 73.6782075,87.1161951 62.5391209,98.9012262 C54.3427351,107.572912 48.2591923,116.736344 49.6089201,121.454667 C51.1208862,126.740136 40.8681095,117.648472 18.8505899,94.1796764 Z" fill="#FFFFFF" transform="translate(69.509287, 72.904540) rotate(30.000000) translate(-69.509287, -72.904540) "></path>
        </g>
    </g>
</svg>