<svg xmlns="http://www.w3.org/2000/svg" viewBox="0 0 1573 1280">
    <g fill="none" fill-rule="evenodd" transform="translate(.106)">
        <path fill="#E7D218" d="M812.757817 581.1905122c57.494868 0 104.588053 43.7774538 104.588053 97.8764218 0 15.739319-13.377387 28.038134-30.235286 28.038134-16.857899 0-30.235287-12.786549-30.235287-28.038134 0-23.60898-19.820319-42.301069-44.609003-42.301069-24.7886839 0-44.6090034 19.179824-44.6090034 42.301069 0 28.024952 10.9064895 54.586702 31.2316164 74.755176 2.685797 2.582511 5.357501 4.967353 8.053552 7.178461-11.791606-.52964-23.1414496-2.756829-33.8122772-6.441617-4.8700058-5.851202-9.1642093-12.220883-14.6267626-21.901431-8.8979311-15.191085-13.353527-34.294825-13.353527-54.869094 0-34.780624 30.181358-62.7075353 67.2848028-62.7075353 37.103444 0 67.284802 27.9137813 66.794156 62.2086063 0 4.411585 3.474304 7.352642 7.425993 7.352642 4.455596 0 7.425993-3.439986 7.425993-7.352642 0-42.133267-36.612798-76.913891-81.632882-76.913891-45.0200833 0-81.6328818 34.780624-82.1235278 77.41282 0 23.016397 5.4501486 44.575394 15.3426324 62.208606.2929939.507869.5833822 1.007999.8713835 1.50072-14.1656835-9.276175-26.2572049-21.458589-35.4323388-35.699328-2.087967-10.755936-2.431534-19.602152-2.431534-26.243759 0-15.238403 2.9757048-28.525869 8.4223073-40.323767 16.8578992-35.4200603 54.5191632-58.0403888 95.6609394-58.0403888Zm.491522 70.8269378c16.857899 0 30.235287 12.786549 30.235287 28.038135 0 23.121244 19.820319 42.301068 44.609003 42.301068 5.325241 0 10.421192-.885148 15.140609-2.504369-6.838852 7.835095-14.676289 14.775251-23.312427 20.623986-12.007978-.731261-22.202131-4.146857-31.266265-10.230784-17.633297-11.846328-27.927045-31.104884-27.927045-51.356149 0-4.447337-2.941072-7.412228-7.352678-7.412228-4.411607 0-7.352678 3.467864-7.352678 7.412228 0 25.188338 12.735888 48.894231 33.796058 63.215714 6.008433 4.115968 12.604375 7.283035 19.789375 9.441852-9.535259 4.061893-19.701182 6.927997-30.309748 8.412126-6.660303-4.071008-12.740655-8.97271-19.025196-14.982047-17.840944-17.215705-27.2595811-40.323767-27.2595811-64.921397 0-15.73932 13.3773871-28.038135 30.2352861-28.038135Zm-68.0751067-89.7550147c40.8613665-21.1962878 93.5312327-21.1962878 134.8807717 0 18.529349 9.2854877 34.000044 22.4880115 46.423067 39.2006196 4.202747 12.2605124 6.48204 25.4141171 6.48204 39.1003581 0 7.214577-.633364 14.281146-1.847495 21.147083-9.332523-53.2313683-58.592874-93.7942676-117.863277-93.7942676-46.5883781 0-89.2180064 26.0740151-108.5468033 65.9100486-5.01571357 10.333805-8.22804334 22.16151-9.40509445 35.016681-2.18295203-9.069341-3.33733025-18.539562-3.33733025-28.279545 0-13.36391 2.17319603-26.219977 6.18529252-38.2337279 12.53743298-16.7132596 28.20947138-30.6427446 47.02882878-40.0672498ZM812.460111 520c34.038644 0 64.780916 14.1208793 86.694177 36.8270896-3.924482-2.4817711-7.993495-4.7812941-12.212092-6.8939165-45.281308-23.66742611-102.8724815-23.1784843-148.166983 0-5.0329394 2.5770032-9.8994733 5.43353-14.585937 8.562826C746.189858 534.8141759 777.5958764 520 812.460111 520Z"/>
        <circle cx="811.894" cy="640" r="392" stroke="#CDCDCD" stroke-width="4"/>
        <circle cx="811.894" cy="640" r="638" stroke="#E3E3E3" stroke-width="4"/>
        <g fill="#7C7C7C" fill-rule="nonzero">
            <path d="M1059.8318078 146.4967694c-2.4140468 0-6.9712208-.6701587-6.9712208-6.9600138.1318751-3.1777163.6722301-6.3255851 1.6078961-9.3668908 2.5462026-7.2272013 7.2399377-8.6989222 10.323574-8.6989222h14.3455169l2.0109715-11.3751768h-17.4291533c-7.1055792-.1314036-14.0768 2.4090671-19.57448311 6.9600138-5.89855584 5.3525091-9.25090909 14.9865873-9.25090909 22.2137885 0 7.8951699 3.35235325 19.0031592 19.1714078 19.0031592h17.5635117l2.4140467-12.0453354-14.2111584.2693775Z"/>
            <path d="m1070.6186281 86-2.9609917 14.7764876h24.6296694l-11.1716116 57.4962397h20.7269422l11.0358264-57.4962397h24.0909092L1139.930364 86z"/>
            <path d="M1347.639386 112.366405c-2.961892-1.7411157-5.522282-2.1419009-11.450453-2.1419009h-71.265297l-2.426556 12.3126447c-.537529-1.7389257-1.211085-3.4800414-2.29053-4.9495868-1.232513-1.7605407-2.843347-3.2240947-4.714892-4.2838017-1.750807-1.0731405-3.637641-1.8747107-5.658309-2.2776859-1.886834-.4007851-3.905308-.6679752-5.792143-.8015703h-26.540739l-7.946645 39.8835951-6.334059-40.0171901h-24.384044l-23.576654 42.6934711-.133834-8.8326033c0-2.1419009-.809583-4.2816116-2.290529-5.8891323-1.483139-1.4717355-3.36778-2.2754958-5.524476-2.5404958v-.1357852c2.694224-.4007851 5.254615-1.3381405 7.409117-2.809876 3.87113-2.3657978 6.221763-6.5794272 6.198031-11.1102893.133834-3.8808264-2.154501-7.4944628-5.658309-9.2333884-2.290529-1.2045454-4.984753-1.8747107-7.545144-2.0083058h-31.1196036l-2.2905293 11.2416942h21.6898199c1.213278 0 6.064198 0 6.064198 4.0166116 0 1.7389256-.809584 3.4800413-2.426557 4.4152066-2.010997.9583482-4.252231 1.3303357-6.4656987 1.0731405h-20.612569l-5.386254 27.3015703h17.5124561l3.3699741-16.9972314h4.041336c1.347112-.1335951 2.8302515.2671901 3.7714745 1.2045454.80739 1.0709504 1.077251 2.4090909.943418 3.6136364l-.539723 12.0454545h34.35355l4.311198-9.1019834h15.761649l.673556 9.1019834h42.842111c7.139255.1335951 14.144676-2.4090909 19.666958-7.0936777 1.347112-1.2045454 2.426557-2.5426859 3.503808-3.8808264l-2.156696 10.972314h38.530914l2.424363-12.4440495h-20.612569l1.347112-6.5592976h17.244789l2.156695-11.1080991h-17.244788l1.347112-6.9600827h47.287142c2.961891 0 6.195837.6701653 6.195837 3.8808265 0 3.6136363-2.961891 5.6219421-6.465699 5.6219421h-23.846515l-5.388448 27.3037603h18.188206l3.36778-16.9972314h4.041336c1.347112-.1357851 2.830252.2671901 3.905309 1.2045455.67575 1.0687603 1.079444 2.4090909.943417 3.6136364l-.537529 12.0454545h18.859569l-.133834-14.0537603c.133834-2.4090909-.809584-4.8181818-2.56039-6.5592975-1.46676-1.2092653-3.236727-1.9953565-5.118587-2.2733058v-.1357852c3.233946-.4007851 6.195837-1.7389256 8.756228-3.7450413 3.097919-2.5470661 4.984753-6.2942975 4.984753-10.308719 0-3.0792562-2.020668-6.5592975-5.254614-8.3004132v.0043802Zm-166.644777 24.4916942 7.275282-15.6590909h.269861l1.211085 15.6590909h-8.756228Zm61.431818 1.0731405c-2.56039 7.3586777-7.275283 8.0288429-10.239368 8.0288429h-3.36778l4.848726-24.6274793h3.503807c2.426557 0 7.005422.5365703 7.005422 6.8264876-.133834 3.4800413-.673556 6.6928926-1.750807 9.7699587v.0021901Z"/>
        </g>
        <path fill="#7C7C7C" fill-rule="nonzero" d="m157.0441211 185.0577869-10.027398 10.0293802L136.894 185.0577869l10.1206949-10.1207409 10.027398 10.1207409h.0020282Zm23.8609842-24.1162595 17.0505434 17.0887198 9.9940414-10.0109441L180.9051053 141l-27.0425823 27.1077 9.9920389 10.0109441 17.0505434-17.1771167Zm33.8511933 13.9975397-9.9882066 10.0730394 10.0791003 10.0750606 10.0710208-10.0750606-10.1639344-10.0750605.0020199.0020211Zm-33.8491909 34.1436185-17.0505433-17.1771166-9.9940414 10.0149622 27.0425823 27.1036819 27.0445848-27.1077-9.9940414-10.0109441-17.0505434 17.1771166h.0020024Zm.0010179-13.9955185 10.0730415-10.1237814-10.0750606-10.0263397-10.0750605 10.1156612 10.0750605 10.0283698v.0060901h.0020191Zm105.5209834.7672199v-.1662954c0-6.3805961-3.469749-9.6154375-9.104814-11.741643 3.467732-1.8688435 6.415305-4.9354098 6.415305-10.294477v-.1662954c0-7.4872524-6.155225-12.3355551-16.040279-12.3355551h-22.630987v47.7228199h23.151147c11.010051.0831477 18.209628-4.339518 18.209628-13.0145946v-.0039594Zm-13.786925-20.8685976c0 3.7397623-2.843963 5.25392-7.441346 5.25392h-9.527177v-10.6053268h10.197832c4.34856 0 6.770691 1.8709182 6.770691 5.1709524v.1804544Zm3.181598 19.0839724c0 3.6186892-2.841119 5.259536-7.496229 5.259536h-12.653892v-10.6053269h12.313518c5.425957 0 7.836603 1.9858661 7.836603 5.2575302v.0882607Zm31.815981 14.8043302v-48.7845036h-10.605327v48.699654h10.605327v.0848496Zm57.268765 1.0585126v-48.7824835h-10.374572v30.0355294l-22.354051-30.0355294h-9.692685v48.6976373h10.372596v-30.902172l23.120927 30.9890383h8.927785v-.0020201Zm59.381887-1.0585126-20.577495-48.7845036h-9.734692l-20.585439 48.7845036h10.848761l4.354994-10.877395h20.24387l4.353008 10.877395h11.104936-.007943Zm-19.081645-20.1521553h-12.726392l6.406888-15.9059561 6.319504 15.9079903v-.0020342Zm68.932648 21.2106679v-48.7824835h-10.372596v30.0355294l-22.35405-30.0355294h-9.692685v48.6976373h10.372596v-30.902172l23.120927 30.9890383h8.927785l-.001977-.0020201Zm55.149676-8.4912816-6.791922-6.7764853c-3.786841 3.4301714-7.137816 5.6603818-12.728106 5.6603818-8.253475 0-14.015712-6.864336-14.015712-15.1003413v-.2555657c0-8.2360053 5.846212-15.0124906 14.015712-15.0124906 4.814527 0 8.601369 2.0565055 12.384212 5.4028194l6.789922-7.8067347c-4.468633-4.3745667-9.886975-7.4633182-19.000187-7.4633182-14.789475 0-25.196291 11.2369061-25.196291 24.8777275v.1737048c0 13.810533 10.574764 24.7918734 24.766423 24.7918734 9.285159.0878507 14.789475-3.1746057 19.77395-8.4915711h.001999Zm45.602906 7.432769v-9.5476049h-26.514183v-10.2445842h23.035952v-9.5476049h-23.037973v-9.8971047h26.166562v-9.5476049h-36.769002v48.699654H574.894v.0848496Z"/>
        <g fill="#7C7C7C" fill-rule="nonzero">
            <path d="M62.0325812 783.53217413v51.05867537H50.8346319v-51.05867537h11.1979493ZM11.1979493 817.569882v16.5707668H0V817.569882h11.1979493Zm16.7948104-19.7073763v36.2802568H16.7948104v-36.2802568h11.1979493Zm16.5707669 11.4219928v25.306351H33.3676909v-25.306351h11.1958357Zm68.7517734 5.8230182c-1.120218 12.540097-8.73347 20.8254804-22.6178285 20.8254804-14.7805322 0-24.6342204-10.7477487-24.6342204-26.6484986 0-14.7805322 9.4056011-26.6484985 24.8561503-26.6484985 12.3181666 0 21.0516376 7.61325284 21.9478116 18.3631151h-10.749862c-1.120218-5.5989747-5.3749314-8.73347048-11.4198795-8.73347048-9.6296446 0-13.436271 8.73347048-13.436271 17.46694098 0 10.5258188 5.148774 17.2428975 13.436271 17.2428975 6.7170787 0 10.7477485-4.03067 11.6460365-11.4198793h10.969679v-.4480871h.002113Zm10.525819 19.0352458v-51.05867544h15.674593l11.87008 34.93388194 11.646036-34.93388194h15.450549v51.05867544h-10.525819v-36.2802568l-12.540097 36.0562132h-8.509426l-12.542211-35.6081262v35.6102398h-10.525819v.2240436l.002114-.0021136Zm93.38388.2240435v-25.976368c0-10.3038888-8.285383-12.0941234-15.676706-12.0941234h-.224044c-10.749862 0-16.346723 4.2547135-17.018854 12.5400969h9.405601c.672131-4.2547135 2.462366-5.5989747 7.165166-5.5989747 4.480871 0 6.719193 1.5683047 6.719193 4.9268441 0 2.9125659-2.240436 3.5846965-8.733471 4.4808706l-1.568305.2219299c-6.943236.8961742-14.556488 2.4644789-14.556488 11.6460364 0 6.9411223 4.926844 11.1958358 13.212227 11.1958358 4.480871 0 8.733471-1.3421476 11.87008-4.7028006v3.5846965h9.405601v-.2240435Zm-9.853688-17.9150281v4.2547135c0 5.3728175-3.806626 8.0613399-8.957514 8.0613399-3.582583 0-5.598975-1.7923482-5.598975-4.9268441 0-4.4808706 4.03067-4.926844 7.38921-5.5989746 2.688522-.4480871 4.926844-.4480871 7.165165-1.7902347h.002114Zm23.289959 17.9150281v-23.0659157c0-2.2404353 1.792348-4.4808706 4.478757-4.4808706h9.181558v-9.8515745h-9.405601c-7.837297 0-14.108402 6.4930351-14.108402 14.3303315v22.8439858c0 .2240435 9.853688.2240435 9.853688.2240435Zm98.086681-51.0586754v13.6603146H339.9459v9.8536881h-11.197949v12.988184c0 2.2404353 1.792348 4.478757 4.480871 4.478757h6.941122v9.8536882h-6.943236c-7.837296 0-14.108402-6.4951488-14.108402-14.3324452v-36.5021867h9.629645Zm-47.476092 13.8843581L267.3875 810.8528033l15.45055 23.0659156h-12.089897l-10.301775-16.3488369-4.256827 4.0306699v12.5422106h-9.851574v-51.05867544h9.851574v27.32062914l12.990298-13.2122275h12.09201Z"/>
            <path d="M315.31168 822.7207696h-9.629645c-1.344261 3.8066264-3.806626 5.3749311-7.389209 5.3749311-5.374931 0-8.511541-3.5825829-8.511541-9.6296446h26.426569v-.8961741c0-12.988184-6.943236-21.0516375-18.139071-21.0516375-10.749863 0-18.587159 8.287497-18.587159 19.7094899 0 11.6460364 7.389209 19.2571756 18.811202 19.2571756 8.285383-.2219299 14.778419-4.9247304 17.018854-12.7641404Zm-9.629645-10.9717922h-15.90075c.448088-5.1508876 3.808741-8.2853834 8.063454-8.2853834 5.150888 0 7.613253 4.0285563 7.837296 8.2853834Zm68.973704-3.80874h-9.405601c-.448087-4.03067-2.910453-5.1508877-6.941123-5.1508877-3.582582 0-5.823018 1.3442612-5.823018 3.8087401 0 2.4623652 2.240436 3.1344958 6.719193 4.2547135l3.582582.6721306C369.056764 812.8670814 376 814.6594297 376 822.7207696c0 7.6153664-6.271105 12.5422105-16.570767 12.5422105-9.183671 0-17.245011-3.80874-17.245011-12.9902976h9.405601c.448087 4.4808706 3.13661 6.2711053 7.83941 6.2711053 4.254714 0 6.717079-1.7923483 6.717079-4.7028006 0-2.9104523-2.686409-3.8066264-7.837297-4.926844l-.896174-.2240436c-6.495148-1.3442612-14.556488-2.4623652-14.556488-11.1979493 0-7.1651658 5.823018-11.4198793 15.90075-11.4198793 8.509427.2240436 15.674592 3.360653 15.898636 11.8679664Z"/>
        </g>
        <g fill="#7C7C7C" fill-rule="nonzero">
            <path d="M615.952166 1242.675318V1181h12.397022v61.675318zM471.470867 1260.9956781H444.894v-61.6752904h25.5081449c12.3971328 0 19.6206143 6.7564173 19.6206143 17.3250176 0 6.8411349-4.6391937 11.2621207-7.850243 12.7341275 3.8328452 1.7315941 8.7390747 5.6287155 8.7390747 13.8618568 0 11.5170185-8.1123132 17.7542885-19.4407239 17.7542885Zm-2.049968-50.9320962h-12.1298765v14.2061343h12.1298765c5.2611 0 8.2048377-2.8590476 8.2048377-7.105412 0-4.2416747-2.9437377-7.1007223-8.2048377-7.1007223Zm.8015209 25.034322h-12.9313974v15.1592421h12.9313974c5.620412 0 8.2921485-3.4629125 8.2921485-7.6243109 0-4.1567088-2.676702-7.5349312-8.2921485-7.5349312ZM528.7239027 1235.7017687v25.2939094h-12.3095739v-25.2939094l-19.0861567-36.381381h13.4657171l11.8626752 24.8596729 11.6830882-24.8596729H547.80537zM582.951738 1260.9956781h-26.57695v-61.6752904h25.508256c12.397022 0 19.620504 6.7564173 19.620504 17.3250176 0 6.8411349-4.639194 11.2621207-7.850243 12.7341275 3.832845 1.7315941 8.73935 5.6287155 8.73935 13.8618568 0 11.5170185-8.112589 17.7542885-19.440917 17.7542885Zm-2.04994-50.9320962h-12.129987v14.2061343h12.129987c5.260989 0 8.204727-2.8590476 8.204727-7.105412 0-4.2416747-2.943738-7.1007223-8.204727-7.1007223Zm.801383 25.034322h-12.93137v15.1592421h12.93137c5.620439 0 8.292176-3.4629125 8.292176-7.6243109 0-4.1567088-2.671737-7.5349312-8.292176-7.5349312ZM668.304682 1210.0635819v50.9367859H655.90766v-50.9367859h-16.589318v-10.7431942H684.894v10.7431942z"/>
        </g>
        <path fill="#7C7C7C" fill-rule="nonzero" d="M1144.035908 1109.4592448h6.471765v3.360059c1.040888-1.2782834 2.375781-2.2881272 3.889634-2.9400517 1.677469-.7208281 3.488444-1.0786667 5.314006-1.0500184 2.590091-.0412184 5.140208.6418485 7.362912 1.9722085 2.162866 1.3001015 3.941341 3.1516811 5.153308 5.3651377 2.525428 4.752191 2.525428 10.4484237 0 15.2006147-1.2136 2.2122575-2.991705 4.0634526-5.153308 5.3651377-2.240311 1.3329962-4.80752 2.0158993-7.414043 1.9722085-1.670922.0158126-3.330294-.2782927-4.893999-.8674065-1.450084-.5458821-2.761059-1.4065603-3.838502-2.5200443v13.2795375h-6.891773v-39.1373827Zm19.015377 21.8403834c1.218977-.7443066 2.210582-1.8085448 2.867007-3.0770105.715838-1.3714154 1.07741-2.899877 1.051844-4.4447737.027049-1.5379153-.334087-3.0578274-1.050018-4.419208-.668708-1.2593827-1.658409-2.319642-2.868833-3.0733584-1.852499-1.1550962-4.102751-1.4854143-6.209064-.911438-2.106312.5739762-3.877887 2.0002535-4.888261 3.9354911-1.366686 2.8241818-1.366686 6.1183231 0 8.9425049 1.326101 2.5892399 4.008645 4.1996157 6.917338 4.1525946 1.470057.0246778 2.917782-.3617617 4.179987-1.1157587v.0127828-.0018261Zm20.412358 5.4199212c-2.179524-1.3025376-3.961518-3.1760944-5.153308-5.4180951-1.236856-2.326188-1.869786-4.9257219-1.840728-7.5601327-.051989-2.6707823.592476-5.3090621 1.869946-7.6550909 1.200856-2.1844231 2.960344-4.0107105 5.098525-5.2920929 2.185721-1.3026264 4.688996-1.9756857 7.233257-1.9448168 2.982052 0 5.502097.6391417 7.560133 1.9192511 2.019067 1.2189319 3.662141 2.9719651 4.747909 5.0656542 1.095672 2.163951 1.652638 4.5616453 1.619768 6.9867313 0 .5259223-.02374 1.0408878-.073045 1.5485489-.045653.4583559-.142437.9094073-.292179 1.3440236h-20.609579c.274179 3.3319622 2.675062 6.1024574 5.934162 6.8477168 3.259101.7452593 6.625474-.706436 8.320523-3.5880943l5.575141 2.7355263c-.959405 2.1321944-2.579202 3.8992452-4.620081 5.0400884-4.79122 2.6414467-10.604463 2.631788-15.386879-.0255656l.018261-.0036523h-.001826Zm2.764744-20.6442754c-1.302051 1.1296008-2.167216 2.6796614-2.445173 4.3808595h13.440236c-.085104-1.6389939-.811949-3.1786186-2.02334-4.2859013-1.245642-1.1187724-2.875459-1.7128604-4.548862-1.6581161-1.612567-.0307064-3.182391.5195747-4.422861 1.550375v.0127829Zm21.310809-6.6160292h6.46994v3.360059c1.041613-1.2797105 2.377372-2.2884212 3.893285-2.9400517 1.677486-.7207752 3.48845-1.0786116 5.314007-1.0500184 2.589982-.0403452 5.139866.6426588 7.362912 1.9722085 2.162316 1.3007914 3.940629 3.1522032 5.153307 5.3651377 2.525751 4.7521104 2.525751 10.4485043 0 15.2006147-1.214024 2.211946-2.992033 4.0630412-5.153307 5.3651377-2.241823 1.3325776-4.810078 2.0154223-7.417696 1.9722085-1.669699.015403-3.327799-.2786964-4.890347-.8674065-1.450055-.5459364-2.761019-1.4066073-3.838501-2.5200443v13.2795375h-6.891774v-39.1373827h-.001826Zm19.015377 21.8403834c1.218783-.7439813 2.209873-1.8083461 2.865181-3.0770105.715839-1.3695893 1.07741-2.8980509 1.053671-4.4447737.026635-1.5383079-.335802-3.0584121-1.053671-4.419208-.6672-1.2592828-1.655709-2.3196155-2.865181-3.0733584-2.828457-1.7678512-6.466428-1.5494117-9.063028.5441835-.841841.6774902-1.53394 1.5211572-2.034297 2.4798696-1.366685 2.8241818-1.366685 6.1183231 0 8.9425049 1.32716 2.5865104 4.006885 4.1960442 6.913687 4.1525946 1.466373.0237396 2.912659-.3652238 4.170855-1.1157587l.012783.0127828v-.0018261Zm14.389818-21.8403834h6.46994v3.360059c1.041664-1.2796581 2.37741-2.2883582 3.893286-2.9400517 1.67742-.720987 3.488429-1.0788324 5.314006-1.0500184 2.590019-.0406361 5.139979.6423889 7.362912 1.9722085 2.161712 1.3015477 3.93985 3.1527761 5.153308 5.3651377 2.525427 4.752191 2.525427 10.4484237 0 15.2006147-1.214307 2.2117384-2.992252 4.0627675-5.153308 5.3651377-2.241634 1.333025-4.81002 2.0159042-7.417696 1.9722085-1.669104.015388-3.326602-.2787143-4.88852-.8674065-1.450766-.5455889-2.762396-1.4062884-3.840329-2.5200443v13.2795375h-6.906382l.012783-39.1373827Zm19.015377 21.8403834c1.218783-.7439813 2.209873-1.8083461 2.865181-3.0770105.715485-1.3708778 1.077644-2.8986015 1.053671-4.4447737.025766-1.5382131-.33662-3.0581046-1.053671-4.419208-.6672-1.2592828-1.655709-2.3196155-2.865181-3.0733584-1.852216-1.1550336-4.102202-1.4853159-6.208227-.9113237-2.106025.5739921-3.877271 2.0002528-4.887272 3.9353768-1.369664 2.8234983-1.369664 6.1190066 0 8.9425049 1.323909 2.5886782 4.004661 4.199254 6.911861 4.1525946 1.468199.0237396 2.91266-.3652238 4.172682-1.1157587l.010956.0127828v-.0018261Zm20.443403 5.4199212c-2.18119-1.3021954-3.965041-3.1757126-5.158786-5.4180951-1.236811-2.3261303-1.869148-4.9258077-1.838902-7.5601327-.052748-2.6708662.591763-5.3093377 1.869946-7.6550909 1.1974-2.1827539 2.952312-4.0088692 5.085741-5.2920929 2.185797-1.30245 4.689021-1.9754958 7.233258-1.9448168 2.982052 0 5.502096.6391417 7.560132 1.9192511 2.020033 1.2177387 3.663394 2.9710788 4.74791 5.0656542 1.102137 2.1661935 1.66234 4.5674176 1.63255 6.997688 0 .5259223-.029218 1.0408879-.080349 1.5522012-.043827.4565297-.140611.9075811-.288527 1.3421975h-20.620536c.27308 3.3331438 2.674413 6.1050785 5.934595 6.8504895 3.260181.745411 6.627504-.7075725 8.321916-3.5908671l5.573316 2.7355263c-.958748 2.1326276-2.578712 3.899863-4.620082 5.0400885-4.789077 2.6422116-10.601132 2.6325514-15.3814-.0255657l.029218-.0182612v.0018261Zm2.761092-20.6442754c-1.302385 1.1326494-2.167954 2.6848635-2.447 4.388164h13.442062c-.085964-1.6382527-.812703-3.1769977-2.023339-4.2840753-1.245823-1.119878-2.876412-1.7146636-4.550689-1.6599421-1.617206-.0363953-3.193323.5114535-4.439295 1.5430705l.018261.0127829Zm21.274286-6.6032464h6.468114v4.0485059c.584358-1.4791564 1.685508-2.6953517 3.104402-3.4184948 1.450618-.6546582 3.028902-.9778008 4.620081-.9459297h1.68003v6.0901069h-2.474391c-1.752132-.0683352-3.455014.5882456-4.707735 1.8151623-1.210717 1.2088908-1.815163 2.9017031-1.815163 5.0747848v15.9347145h-6.888121l.012783-28.5988499Zm20.629667 27.0375182c-2.178551-1.3689529-3.820594-3.4448753-4.651125-5.8801033l5.153308-2.470739c.688446 1.5083743 1.756726 2.8122233 3.104402 3.7800664 1.273979.9053523 2.80159 1.3847279 4.364424 1.3695892 1.051514.0490014 2.091555-.2360987 2.971096-.8144491.731693-.5051361 1.157832-1.3464185 1.132194-2.2351696.021356-.7638282-.343961-1.4869101-.971496-1.9229034-.70853-.4993579-1.502636-.8645355-2.34291-1.0774102l-4.693126-1.3421975c-2.417782-.7012297-4.251205-1.7713354-5.496618-3.2103172-1.23295-1.4106419-1.898048-3.2289259-1.866294-5.1021765-.039552-1.6412997.428552-3.2547924 1.340371-4.6200811.937882-1.3318516 2.224159-2.3799521 3.717979-3.0295315 4.115263-1.7356695 8.810363-1.4130383 12.649526.8692327 2.038568 1.2787468 3.593393 3.1997911 4.419208 5.4600958l-5.262875 2.4707391c-.44121-1.2806465-1.302233-2.3746211-2.443347-3.1044024-1.16288-.7649179-2.527006-1.1666546-3.918852-1.1541072-.975176-.0571645-1.940536.2212303-2.735526.7888834-.645036.4817927-1.017192 1.245833-.998887 2.0507317-.026966.7505241.328499 1.4635171.944104 1.8936854.739578.5021827 1.557679.8765371 2.419607 1.104802l4.578081 1.3641109c2.386737.6701857 4.207378 1.7220302 5.460096 3.1591859 1.256883 1.4184708 1.933041 3.2585087 1.893685 5.1533079.029231 1.621769-.448968 3.2121479-1.367763 4.5488624-.956457 1.3510624-2.263409 2.4155649-3.780067 3.0788367-1.793057.7718276-3.731252 1.1486296-5.682882 1.104802-2.813071.0503992-5.578392-.7309805-7.949096-2.2461264l.012783.0127829Zm27.908577-.7907096c-1.771336-1.7895966-2.655177-4.2785968-2.655177-7.4688268v-13.0019674h-4.943304v-5.7887972h.525922c1.402459 0 2.490826-.3652238 3.261448-1.104802.774275-.7395782 1.155934-1.8078579 1.155934-3.2084911v-4.2384223h6.893599v8.5517154h6.577681v5.7887972h-6.574029v12.6002213c0 1.4353295.381659 2.5401315 1.154107 3.314406.774275.7724483 1.999601 1.1541072 3.685109 1.1541072.615402-.0036522 1.230804-.0547836 1.838901-.1552201v5.8801032c-.489399.0730448-1.05367.1424373-1.680029.2100037-.575816.0683958-1.154967.1049737-1.734813.1101133-3.239535.017715-5.746797-.8661266-7.518132-2.6557232l.012783.0127828Zm19.433558 1.0500185c-4.686316-2.6426118-7.586887-7.6036552-7.591195-12.9837063-.00617-5.37994 2.884616-10.3465399 7.56563-12.9983151 4.772726-2.5930001 10.533803-2.5930001 15.306529 0 2.253665 1.2636915 4.136848 3.0958765 5.461922 5.3140063 2.706898 4.7735719 2.697183 10.6205033-.025565 15.3850527-1.324501 2.2179494-3.207051 4.0501284-5.460096 5.3140064-4.754971 2.5693178-10.487199 2.5576347-15.231659-.031044h-.025566Zm11.730989-5.4600959c1.193009-.7531658 2.15779-1.8177076 2.79031-3.0788367.695934-1.3762799 1.047478-2.9008906 1.024453-4.4429475.025764-1.5345445-.325377-3.0519727-1.022627-4.4192081-.645022-1.2521163-1.607923-2.3126301-2.792136-3.0751844-1.217704-.766831-2.633508-1.1598282-4.072246-1.1303676-1.457874-.0245299-2.892366.3683081-4.134333 1.1321937-1.205812.7503103-2.18683 1.8120806-2.839615 3.0733583-.69902 1.3665895-1.050265 2.8844661-1.022627 4.4192081-.027391 1.5412444.325049 3.0678799 1.022627 4.4429475.639142 1.2709789 1.625246 2.3374324 2.839615 3.0788367 1.248567.7455438 2.680301 1.1281405 4.134333 1.104802 1.433294.0196772 2.842368-.3706057 4.061289-1.1248893l.010957.0200873Zm14.316773-21.8403834h6.471766v3.5244097c.749192-1.3478072 1.895723-2.431846 3.283362-3.1044024 1.501749-.7196563 3.150431-1.0797779 4.815476-1.0518445 1.954604-.0363513 3.885141.4355854 5.602533 1.3695892 1.604105.8862952 2.926164 2.2064547 3.814762 3.8092843.936799 1.7366392 1.406112 3.6869343 1.364111 5.6591428v18.4054536h-6.888121v-16.7838599c0-1.8936854-.535053-3.3929291-1.603332-4.4995572-1.104285-1.1187775-2.629445-1.7195582-4.200074-1.6544639-1.57664-.0678432-3.106641.5438912-4.2019 1.6800295-1.071932 1.1248894-1.605158 2.6113502-1.605158 4.4739916v16.7747293h-6.866208l.012783-28.6043283v.0018262Zm35.311663 27.2456957c-2.181571-1.3011368-3.965085-3.1749621-5.15696-5.4180951-1.236562-2.3262998-1.869473-4.9257578-1.840728-7.5601328-.051268-2.6695409.593171-5.30646 1.869946-7.6514386 1.197591-2.1821361 2.952495-4.0076147 5.085742-5.2902668 2.185117-1.3024776 4.687766-1.9755383 7.231431-1.9448168 2.983878 0 5.503923.6391417 7.560133 1.9192511 2.016196 1.2202018 3.656597 2.9730814 4.740605 5.0656542 1.103034 2.1658662 1.663289 4.5673144 1.63255 6.997688 0 .5259223-.029218 1.0408879-.078523 1.5522012-.043827.4565297-.140611.9075811-.292179 1.3421975h-20.616884c.133307 1.6252459.779753 3.1646642 1.84438 4.3954684 1.618468 1.8662084 4.036399 2.8391221 6.496375 2.6139742 2.459974-.2251479 4.661123-1.6208202 5.91393-3.7498202l5.573315 2.7355263c-.959404 2.1321945-2.579201 3.8992453-4.620081 5.0400885-4.789256 2.6415146-10.600951 2.6318547-15.3814-.0255657l.036522-.0219134h.001826Zm2.759266-20.6442755c-1.301519 1.1335816-2.165821 2.6864817-2.443347 4.3899901h13.440236c-.085468-1.638765-.813047-3.1779001-2.025166-4.2840752-1.244801-1.1191558-2.873977-1.7139031-4.547036-1.6599422-1.617096-.0352594-3.192657.513917-4.43747 1.5467228l.012783.0073045Zm-401.41382925-11.5465505c-.9988871-13.25397185.82540579-19.07563927 17.16551875-18.64102295 16.3382868.43461633 47.1960459 7.12734252 62.0150018 15.64618775 14.8207819 8.5170191 13.6027605 18.8638094 5.6956652 31.6320336-7.9070954 12.7773547-22.5123953 27.9889261-36.3306379 32.727705-13.8200687 4.7351266-26.8585584-1.0025394-35.2879238-14.2145104-8.43301761-13.210145-12.25325859-33.892769-13.25762405-47.150393Zm50.16166325-3.8092843h-30.3300108l-3.86772 10.5805336h34.2032091c4.3538043.1021392 7.8347221 3.6582127 7.8347221 8.0130102s-3.4809178 7.910871-7.8347221 8.0038797v.0292179h-10.3906172v-10.5823597h-10.5823597v38.4525881h10.5823597v-17.2842165h10.3906172c10.2938329 0 18.6446752-8.2686669 18.6392023-18.5679781 0-10.2956591-8.3490216-18.6446752-18.6446806-18.6446752Z"/>
        <g fill="#7C7C7C" fill-rule="nonzero">
            <path d="M1395.8719503 640h-71.65770993c-.44192029 0-.86576202.17542896-1.17811932.48812105-.31269209.3123573-.48812105.73619903-.48812105 1.17845411v71.65770994c0 .4419203.17542896.8657621.48812105 1.1781193.3123573.3126921.73619903.4881211 1.17811932.4881211h71.65770993c.4422551 0 .8660969-.175429 1.1784541-.4881211.3126921-.3123572.4881211-.736199.4881211-1.1781193v-71.65770994c0-.44225508-.175429-.86609681-.4881211-1.17845411-.3123572-.31269209-.736199-.48812105-1.1784541-.48812105Zm-23.3303782 48.3273317c0 .4419203-.175429.865762-.4881211 1.1784541-.3123573.3123573-.736199.4881211-1.1781193.4881211h-21.6641379c-.4419203 0-.865762-.1757638-1.1784541-.4881211-.3123573-.3126921-.4877863-.7365338-.4877863-1.1784541v-21.6641379c0-.4419203.175429-.865762.4877863-1.1781193.3126921-.3126921.7365338-.4881211 1.1784541-.4881211h21.6641379c.4419203 0 .865762.175429 1.1781193.4881211.3126921.3123573.4881211.736199.4881211 1.1781193v21.6641379ZM1545.89485 664.9996317h-21.663803c-.920333 0-1.666575.7459079-1.666575 1.6662404V688.33001c0 .9203325.746242 1.6665752 1.666575 1.6665752h21.663803c.920332 0 1.666575-.7462427 1.666575-1.6665752v-21.6641379c0-.9203325-.746243-1.6662404-1.666575-1.6662404ZM1520.887853 640.00200873h-21.663803c-.920333 0-1.666575.74590788-1.666575 1.66657516V663.332387c0 .9203325.746242 1.6665752 1.666575 1.6665752h21.663803c.920667 0 1.666575-.7462427 1.666575-1.6665752v-21.66380311c0-.92066728-.745908-1.66657516-1.666575-1.66657516ZM1570.88176 640.00200873h-21.664138c-.920333 0-1.666575.74590788-1.666575 1.66657516V663.332387c0 .9203325.746242 1.6665752 1.666575 1.6665752h21.664138c.920332 0 1.66624-.7462427 1.66624-1.6665752v-21.66380311c0-.92066728-.745908-1.66657516-1.66624-1.66657516ZM1520.887853 689.995246h-21.663803c-.920333 0-1.666575.7459079-1.666575 1.6662404v21.6641379c0 .9203325.746242 1.6665751 1.666575 1.6665751h21.663803c.920667 0 1.666575-.7462426 1.666575-1.6665751v-21.6641379c0-.9203325-.745908-1.6662404-1.666575-1.6662404ZM1570.88176 689.995246h-21.664138c-.920333 0-1.666575.7459079-1.666575 1.6662404v21.6641379c0 .9203325.746242 1.6665751 1.666575 1.6665751h21.664138c.920332 0 1.66624-.7462426 1.66624-1.6665751v-21.6641379c0-.9203325-.745908-1.6662404-1.66624-1.6662404ZM1483.36112 640.00200873h-21.663803c-.920333 0-1.666575.74590788-1.666575 1.66657516V663.332387c0 .9203325.746242 1.6665752 1.666575 1.6665752h21.663803c.920332 0 1.666575-.7462427 1.666575-1.6665752v-21.66380311c0-.92066728-.746243-1.66657516-1.666575-1.66657516ZM1483.36112 689.995246h-21.663803c-.920333 0-1.666575.7459079-1.666575 1.6662404v21.6641379c0 .9203325.746242 1.6665751 1.666575 1.6665751h21.663803c.920332 0 1.666575-.7462426 1.666575-1.6665751v-21.6641379c0-.9203325-.746243-1.6662404-1.666575-1.6662404ZM1460.030742 666.6444457c0-.4419203-.175764-.8657621-.488121-1.1781194-.312692-.312692-.736534-.488121-1.178454-.488121h-23.330379v-23.31163014c0-.44225508-.175764-.86609681-.488121-1.17845411-.312692-.31269209-.736534-.48812105-1.178454-.48812105h-21.663803c-.4422551 0-.8660968.17542896-1.1784541.48812105-.3126921.3123573-.4881211.73619903-.4881211 1.17845411v71.62021374c0 .4419203.175429.865762.4881211 1.1781193.3123573.3126921.736199.488121 1.1784541.488121h21.663803c.44192 0 .865762-.1754289 1.178454-.488121.312357-.3123573.488121-.736199.488121-1.1781193v-23.3116302h23.330379c.44192 0 .865762-.1757637 1.178454-.488121.312357-.3126921.488121-.7365338.488121-1.1784541v-21.6641379Z"/>
        </g>
    </g>
</svg>
